<svg id="eFyUz4G5ucm1" xmlns="http://www.w3.org/2000/svg" xmlns:xlink="http://www.w3.org/1999/xlink" viewBox="0 0 600 600" shape-rendering="geometricPrecision" text-rendering="geometricPrecision" project-id="ba89e6ac39844d378d1ba77b9181ca9e" export-id="2751b1eaf4b447ec92a810499dfca507" cached="false"><defs><filter id="eFyUz4G5ucm2-filter" x="-150%" width="380%" y="-150%" height="380%"><feGaussianBlur id="eFyUz4G5ucm2-filter-drop-shadow-0-blur" in="SourceAlpha" stdDeviation="10,0"/><feOffset id="eFyUz4G5ucm2-filter-drop-shadow-0-offset" dx="0" dy="0" result="tmp"/><feFlood id="eFyUz4G5ucm2-filter-drop-shadow-0-flood" flood-color="#000"/><feComposite id="eFyUz4G5ucm2-filter-drop-shadow-0-composite" operator="in" in2="tmp"/><feMerge id="eFyUz4G5ucm2-filter-drop-shadow-0-merge" result="result"><feMergeNode id="eFyUz4G5ucm2-filter-drop-shadow-0-merge-node-1"/><feMergeNode id="eFyUz4G5ucm2-filter-drop-shadow-0-merge-node-2" in="SourceGraphic"/></feMerge></filter><filter id="eFyUz4G5ucm3-filter" x="-150%" width="400%" y="-150%" height="400%"><feGaussianBlur id="eFyUz4G5ucm3-filter-drop-shadow-0-blur" in="SourceAlpha" stdDeviation="10,0"/><feOffset id="eFyUz4G5ucm3-filter-drop-shadow-0-offset" dx="0" dy="0" result="tmp"/><feFlood id="eFyUz4G5ucm3-filter-drop-shadow-0-flood" flood-color="#000"/><feComposite id="eFyUz4G5ucm3-filter-drop-shadow-0-composite" operator="in" in2="tmp"/><feMerge id="eFyUz4G5ucm3-filter-drop-shadow-0-merge" result="result"><feMergeNode id="eFyUz4G5ucm3-filter-drop-shadow-0-merge-node-1"/><feMergeNode id="eFyUz4G5ucm3-filter-drop-shadow-0-merge-node-2" in="SourceGraphic"/></feMerge></filter></defs><path d="M229.32,394.77c11.6,1.07,22.88-.71,33.97-4.32.03.13.07.26.1.39-2.87,1.07-5.71,2.2-8.61,3.2-2.94,1.01-5.88,2.01-8.88,2.8-2.96.78-5.97,1.39-8.98,1.9-3.04.52-6.11.82-9.19,1.33.27.05.54.16.81.15c4.09-.13,8.21-.01,12.26-.49c5.16-.6,10.29-1.53,15.39-2.59c5.17-1.08,10.22-2.65,15.15-4.64c8.64-3.5,13.65-10.19,16.4-19.09c2.15-6.95,2.78-14.05,2.21-21.26-.29-3.62-.97-7.21-1.48-10.81-.04-.27-.08-.53,0-.82c1.43,4.1,2.62,8.29,3.01,12.62.39,4.31.42,8.65.6,13.01.25-.43.61-.92.83-1.47c2.97-7.45,5.42-15.06,6.94-22.98c1.81-9.39,2.1-18.89,2.1-28.42c0-5.12-.48-10.16-2.54-14.87-1.02-2.34-2.17-4.65-3.55-6.78-3.13-4.82-8.96-5.53-13.05-1.67-.87.82-1.43,1.98-2.18,3.04-.17-.4-.36-.87-.56-1.36-1.17.99-1.67,3.03-1.3,5.12.47,0,.96-.07,1.43.01c1.72.3,2.76,1.73,2.58,3.63-.08.86-.42,1.68-.6,2.53-.31,1.53-.58,3.07-.88,4.7-1.66-1.23-3.24-2.57-4.24-4.5-.58-1.12-.62-2.32-.1-3.44.38-.82.25-1.43-.1-2.21-1.1-2.44-.99-4.84.53-7.1.17-.25.28-.53.58-1.11-.91.31-1.52.52-2.33.79c1.12-1.78,2.82-2.32,4.35-3.18-1.43-.27-2.8-.13-4.07.51-.86.43-1.71.91-2.49,1.48-3.33,2.43-7.14,3.4-11.07,3.9-2.11.27-4.26.27-6.39.46c3.57,1.23,7.11,1.68,10.48-.58.13.12.23.18.22.22-1.09,4.55-3.41,7.04-7.79,5.44-3.33-1.22-5.6-3.86-7.59-6.76.14-.16.19-.27.23-.27c2.15.17,4.13-.54,6.15-1.14c1.03-.31,2.32-.24,3.36.09c2.54.81,4.88.59,7.21-.66c1.27-.69,2.59-1.28,3.93-1.94-1.12-1.3-2.91-1.6-4.14-.81-.42.27-.84.57-1.28.78-3.69,1.73-7.26.19-8.75-3.8-.46-1.21-.71-2.51-1.14-3.73-.31-.86-.77-1.67-1.27-2.73.41.18.62.22.78.34c1.55,1.12,3.3,1.62,5.16,1.83c2.37.27,4.51,1.06,6.38,2.68c3.19,2.76,7.03,3.48,11,3.12c2.88-.26,5.72-.98,8.56-1.57c3.84-.79,7.48.59,9.6,3.99c1.24,1.98,2.19,4.16,3.27,6.25.08.16.17.32.34.44-.21-1.94-1.01-3.67-2.08-5.17-2.65-3.73-5.33-7.46-8.25-10.96-4.14-4.98-9.51-7.48-15.86-7.61-1.38-.03-2.76-.06-4.13,0-4.43.22-5.73,3.1-4.34,7.23.13.39.32.76.58,1.36-1.54-.65-3.01-1.13-3.32-2.72-.26-1.34-.05-2.77-.05-4.45-.72.8-1.18,1.5-1.81,1.97-.81.61-1.71,1.34-2.65,1.48-2.05.32-4.15.3-6.29.29c3.74-3.65,8.41-5.5,13.19-7.1c4.88-1.64,9.89-1.22,15.17-.78-.43-.52-.67-.84-.94-1.13-2.07-2.21-3.22-4.88-3.7-7.9-.29-1.86-2.26-2.8-3.97-2.02-1.35.62-2.73,1.28-4.16,1.59-2.2.46-4.22-.39-6.16-1.42-.54-.29-1.09-.57-1.81-.94c1.47-1.61,3.2-2.6,5.27-3.09c2.18-.51,3.82.89,5.83,1.94-.34-1.89-1.32-2.83-2.52-3.32-1.29-.53-2.71-.81-4.09-.99-3.64-.46-6.44-2.33-8.66-5.24-.25-.32-.38-.75-.65-1.31c1.96.3,3.73.44,5.44.86c1.77.43,3.77.73,5.14,1.81c2.73,2.17,5.48,4.47,6.88,7.95.1.25.37.54.61.6.84.21,1.71.34,2.99.57-.62-1.3-1.07-2.35-1.62-3.34-.26-.47-.69-.84-1.06-1.24-2.53-2.71-3.59-5.93-3.14-9.68.04-.35.08-.71.11-1.07.11-1.3.12-2.37-1.1-3.44-1.63-1.43-1.95-3.51-1.01-5.66.59-1.35,1.12-2.72,1.71-4.17c1.15,1.2,2.67,2.29,3.44,4.08.94,2.19.55,4.36-1.18,6.1-.67.67-.97,1.35-.85,2.31.23,1.88.3,3.8.64,5.65.17.93.8,1.76,1.46,2.59-.41-5.65,1.12-10.42,5.08-14.08-.58-1.02-1.22-1.86-1.57-2.82-.53-1.44-.26-2.85.81-3.96c1.33-1.38,2.73-2.69,4.07-4c1.59,3.1,2.77,6.31-.49,9.45c1.86-.35,3.44-.81,4.53-2.39.78-1.13,1.39-2.48,3.04-2.63c1.01-.1,1.65.09,1.76,1.06-.91.32-1.88.46-2.61.97-.73.5-1.24,1.36-2.03,2.28c3.78,1.11,7.58,1.67,10.35,4.76-.06-.42-.12-.83-.21-1.53c3.32,2.85,3.23,6.46,3.04,10.26-1.99-.72-4.03-1.17-5.32-2.95-.59-.81-1.07-1.86-1.2-2.85-.4-3.14-.89-3.71-3.91-4.5-2.09-.55-4.14-.6-6.25-.23-2.63.46-4.31,2.1-5.35,4.53-1.35,3.18-1.48,6.48-.54,9.77c1.04,3.64,2.25,7.22,2.76,11.02.3,2.26,1.51,4.3,3.31,5.69c2.52,1.93,5.2,3.62,7.77,5.49c6,4.37,10.75,9.86,13.93,16.76.11.23.27.44.71.66.24-1.29.53-2.57.71-3.87.73-5.17.7-10.32-1.29-15.21-.98-2.4-2.35-4.62-3.5-6.95-.84-1.7-1.59-3.45-2.22-5.27c4.88,2.58,9.01,5.83,10.87,11.55c1.92-5.65,5.97-8.91,11.15-11.48-.98,1.8-1.75,3.37-2.67,4.84-2.82,4.52-4.85,9.34-5.47,14.74-.42,3.68-.13,7.34.14,11c.11.05.23.1.34.15.36-.64.75-1.26,1.08-1.91c2.04-3.95,4.49-7.56,7.73-10.57c3.36-3.11,7.15-5.56,11.05-7.86c1.44-.85,2.72-1.98,3.95-2.89-.52-.45-.98-.64-1.1-.97-.43-1.22-.65-2.52-1.13-3.71-.88-2.17-.81-4.25.18-6.51c1.1,2.09,2.22,3.99,3.13,5.99.59,1.31.32,2.7-.53,3.94.1.05.2.1.31.15.42-.73.95-1.42,1.23-2.21.38-1.07.54-2.22.85-3.32.81-2.84,1.55-5.71,2.51-8.49c1.19-3.44,1.33-6.83-.01-10.21-1.2-3.01-3.43-4.7-6.55-5.05-2.6-.29-5.12.02-7.48,1.26-1.04.54-1.56,1.38-1.57,2.66-.03,2.77-1.48,4.58-3.88,5.63-.94.41-1.92.74-2.96,1.14.4-3.15.01-6.41,2.03-9.16.13.2.28.43.29.44c2.31-1.19,4.5-2.38,6.75-3.44.85-.4,1.85-.48,2.77-.74c1.14-.32,1.24-.81.53-1.75-1.09-1.43-2.47-2.17-4.32-1.93.53-1.14,1.63-1.73,2.46-1.21c1.05.66,2.09,1.46,2.89,2.42c1.02,1.22,2.23,1.99,3.81,2.61-.49-1.73-1.28-3.3-1.28-4.88c0-1.61.77-3.22,1.18-4.73c1.32,1.16,2.47,2.22,3.67,3.21c2.15,1.78,2.53,4.13.98,6.5-.19.29-.4.57-.62.88c1.85,1.91,3.11,4.14,3.99,6.63.88,2.51,1.05,5.08.28,8.02c1.24-.65,1.77-1.53,1.9-2.42.33-2.22.5-4.47.63-6.71.03-.52-.28-1.17-.63-1.59-1.73-2.07-2.09-4.09-.76-6.42.8-1.4,1.91-2.62,2.89-3.91.67,1.66,1.28,3.12,1.86,4.6.98,2.51.49,4.18-1.86,6.09-.54.44-.89.85-.68,1.59c1.4,4.88-.11,8.86-3.46,12.32-.99,1.02-1.92,2.14-2.04,3.72c1.92.33,2.75-.11,3.61-1.69.39-.72.84-1.44,1.41-2.01c1.65-1.65,3.27-3.37,5.1-4.78c1.12-.87,2.57-1.4,3.95-1.77c2.06-.55,4.19-.84,6.69-1.31-.77,1.2-1.26,2.21-1.96,3.03-1.94,2.26-4.37,3.48-7.34,3.69-1.46.1-2.94.48-4.33.99-.77.28-1.42,1.03-2.03,1.67-.27.28-.29.8-.29,1.37c1.85-.98,3.59-2.39,5.69-1.6c1.86.7,3.6,1.77,5.67,2.82-1.63.81-2.84,1.56-4.14,2.03-2.67.96-5.33,1.11-7.79-.7-.95-.7-1.92-.87-3.02-.38-.77.35-1.26.87-1.35,1.75-.35,3.19-1.63,5.92-3.8,8.2-.16.17-.28.37-.41.57-.04.06-.02.15-.05.39c5-.34,10.01-.68,14.83,1c4.74,1.65,9.27,3.74,13.35,7.3-2.18-.12-4.03-.27-5.88-.31s-3.2-.91-4.27-2.4c-.22-.31-.46-.6-.87-.95.74,3.01.24,5.32-3.06,6.32.1-.36.12-.6.23-.81c1.56-3.09.23-6.48-3.08-7-2.73-.43-5.56-.32-8.34-.19-5.39.25-9.98,2.57-13.48,6.75-3.88,4.63-7.6,9.42-11.09,14.38-1.2,1.71-1.49,4.11-2.16,6.21-.1.3-.01.66-.01.86.7-1.9,1.28-3.94,2.18-5.82c1.49-3.13,3.61-5.81,6.22-8c2.33-1.95,5.07-2.25,7.94-1.68c2.51.49,5.02,1.07,7.55,1.4c3.15.41,6.27,0,9.28-1.07.85-.3,1.71-.78,2.36-1.4c1.95-1.86,4.24-2.87,6.84-2.96c1.97-.06,3.81-.31,5.34-1.73.16-.14.41-.18.89-.38-1.47,2.94-1.68,6.16-3.77,8.54-1.77,2.01-3.95,2.72-6.44,1.83-1.19-.43-2.24-1.25-3.37-1.86-.21-.11-.5-.2-.71-.14-.95.29-1.88.63-3.16,1.08c1.22.54,2.12.92,3.01,1.32c2.24,1,4.47,2.03,6.74,2.98.38.16,1.05.17,1.33-.07c2.21-1.91,4.45-1.97,6.8-.34.24.17.57.21.85.33.05.02.07.13.16.33-1.23.65-2.4,1.65-3.7,1.87-1.27.22-2.66-.36-4.15-.62c1.1,1.8,1.81,3.74,1.64,5.93-.16,2.17-.94,4.09-1.98,5.92-.1-.01-.2-.03-.31-.04c0-.61,0-1.21,0-1.82c0-1.19.04-2.38.03-3.57-.03-3.56-1.91-5.79-4.84-7.3-2.84-1.46-5.6-3.09-8.49-4.42-1.38-.64-2.99-.76-4.58-.87c1.63,1.08,3.71,1.4,4.77,3.71-.97-.49-1.72-.86-2.47-1.23-.05.06-.1.12-.15.17.14.19.24.42.41.57c2.51,2.17,2.96,5.01,1.15,7.78-.44.67-.45,1.16-.06,1.82.88,1.52.76,2.99-.24,4.44-1.09,1.57-2.56,3.03-3.63,3.54-.54-2.12-1.12-4.25-1.63-6.41-.4-1.7.1-3.05,1.37-3.83.31-.19.74-.36,1.07-.29c1.19.23,1.62-.45,1.5-1.45-.14-1.19-.5-2.36-.83-3.52-.06-.21-.43-.33-.77-.56-.1.68-.17,1.17-.26,1.84-.29-.25-.56-.37-.64-.56-1.55-3.71-7.23-5.97-10.76-5-1.66.46-3.02,1.43-3.99,2.85-3.03,4.48-5.66,9.22-6.36,14.72-.36,2.84-.17,5.78-.05,8.67.16,3.84.52,7.67.77,11.51.13,1.97-.44,3.56-2.27,4.52-.73.38-1.36.97-2.21,1.6.16-6.85-1.17-13.17-3.91-19.14-.1.02-.2.05-.3.07.41,1.51.85,3,1.21,4.52c1.21,5.01,1.41,10.11,1.29,15.24c0,.43-.23.96-.53,1.25-1.15,1.09-2.37,2.09-3.17,2.79c0-3.21.28-7.12-.08-10.98-.35-3.83-1.23-7.64-3.36-10.97.39,1.28.79,2.55,1.16,3.83c1.28,4.44,1.38,9,1.04,13.56-.45,6.05-1.21,12.07-2.74,17.95-1.99,7.63-5.18,14.73-8.99,21.55-3.32,5.94-5.8,12.23-7.04,19-.36,1.94-1.15,3.67-2.28,5.27-2.92,4.11-6.31,7.64-10.78,9.95-4.04,2.07-8.03,4.23-12.07,6.3-.32.16-1.05.03-1.26-.24-.76-.98-1.37-2.07-1.95-2.96c4.53-2.11,9.15-4.05,13.59-6.38c4.45-2.34,8.38-5.51,11.71-9.48-1.27.87-2.55,1.71-3.79,2.61-5.66,4.05-11.74,7.28-18.15,9.83-1.28.51-2.59.96-3.92,1.31-.36.1-.93-.15-1.24-.43-.76-.7-1.43-1.51-2.25-2.4c10.73-2.42,19.87-7.41,27.12-15.82-.06-.1-.12-.2-.18-.3-.68.51-1.4.98-2.05,1.53-6.54,5.64-14,9.5-22.12,11.96-9.96,3.02-20.1,5.02-30.55,4.28-5.31-.38-9.95-2.39-12.85-7.33-2.6-4.45-2.85-9.2-1.1-14.06.61-1.71,1.39-3.35,1.99-5.06.81-2.32.76-4.67,0-7-.49-1.53-1.41-2.7-2.78-3.49-.43-.25-.87-.5-1.28-.79-1.44-1.02-2.06-2.51-1.65-3.97.5-1.79,1.96-2.99,3.69-3.02c3.41-.08,6.68.73,9.91,1.72.35.11.71.19,1.07.29.05-.09.1-.19.14-.28-.87-.59-1.7-1.25-2.62-1.76-3.29-1.83-6.87-2.6-10.53-3.11-.86-.12-1.73-.39-2.53-.75-1.82-.82-2.67-2.93-1.98-4.87.33-.93.81-1.79,1.2-2.7c1.6-3.74.4-9.86-4.91-10.49-1.18-.14-2.36-.28-3.52-.51-1.01-.2-2.02-.47-2.98-.84-3.44-1.31-5.56-5.13-3.26-9.06c1.87-3.18,3.9-6.26,5.88-9.37c4.09-6.42,8.24-12.8,12.28-19.25c2.03-3.24,2.63-6.77,1.07-10.42-.55-1.29-1.31-2.52-2.16-3.63-2.64-3.46-3.08-7.16-1.3-11.13.66-1.47,1.33-2.95,2.13-4.34c1.46-2.56,2.06-5.31,2.33-8.24.68-7.22,2.41-14.2,5.11-20.89c6.24-15.47,16.39-27.62,29.81-36.82c8.47-5.81,17.66-10.11,27.48-12.89c7.17-2.03,14.43-3.52,21.86-4.13c6.13-.51,12.23-.54,18.36-.18c16.22.96,31.42,5.48,45.37,14.13c10.97,6.8,20.01,15.78,27.03,26.9c4.71,7.46,8.28,15.45,10.16,24.18c2.37,11.01,1.9,21.9-1.61,32.61-.52,1.57-1.16,3.1-1.76,4.65-.33.86-.74,1.22-1.73.73-2.89-1.42-2.92-1.37-1.69-4.46c4.49-11.3,4.87-22.82,1.47-34.45-3.72-12.71-10.62-23.37-19.96-32.4-9.29-8.98-20.15-15.12-32.12-19.29-8.21-2.86-16.67-4.3-25.28-5.06-10.2-.9-20.27-.03-30.26,2.07-10.94,2.31-21.17,6.54-30.56,12.8-9.38,6.27-17.36,14.09-23.28,23.96-5.91,9.86-9.07,20.61-8.77,32.29.22,8.3,2.53,15.92,7.55,22.53c2.52,3.32,5.76,5.52,9.55,6.94c1.76.66,3.53,1.29,5.27,2.01c3.1,1.28,5.84,3.18,8.11,5.7c1.83,2.03,3.95,3.58,6.28,4.93c9.54,5.5,15.91,13.85,19.89,24.24c3.09,8.06,4.61,16.44,4.4,25.11-.14,5.77-1,11.46-3.24,16.81-2.83,6.76-8.03,10.81-14.53,13.34-7.08,2.75-14.35,4.72-21.84,5.76-5.38.74-10.76,1.42-16.14,2.13h.03Zm3.58-4.82c0,.1,0,.2,0,.3.49,0,.99.03,1.48,0c3.55-.22,7.11-.31,10.64-.71c10.01-1.11,19.31-4.33,27.61-10.37c4.72-3.43,8.18-7.92,10.48-13.39.13-.31.17-.66.26-.99-.86.94-1.56,1.88-2.18,2.87-2.64,4.26-6.24,7.55-10.29,10.21-9.5,6.24-20.14,9.16-31.14,10.94-2.29.37-4.58.76-6.87,1.14h.01Zm1.61-10.9c.02.1.05.2.07.31c11.67.6,22.19-2.8,31.29-10.4c8.34-6.96,12.46-16.38,13.62-27.28-.27.51-.44,1.07-.58,1.63-2.12,8.65-5.96,16.24-12.46,22.28-8,7.44-17.68,10.95-28,12.97-1.3.25-2.63.33-3.94.5v-.01Zm40.56-40.88c-.09-.04-.18-.07-.27-.11-.58,1.75-1.05,3.55-1.75,5.26-3.67,8.96-9.52,16.01-17.56,21.07-2.96,1.86-6.05,3.53-9.07,5.28c7.19-1.81,13.54-5.27,18.79-10.66c5.6-5.74,8.51-12.92,9.86-20.84Zm-11.53-5.85c-.14-.14-.27-.29-.41-.43-3.36,4.95-7.48,8.98-12.55,11.93-5.01,2.91-10.41,4.83-15.76,6.91c6.74-.89,13.26-2.54,18.96-6.59c4.26-3.02,7.54-6.97,9.76-11.82Zm6.05,5.37c-2.61,5.98-6.09,11.32-10.76,15.78-4.68,4.48-10.12,7.75-15.84,10.58c5.67-1.36,10.85-3.83,15.3-7.73c5.65-4.95,9.48-11.14,11.29-18.62l.01-.01Zm-32.21,17.27c.45-.03.67,0,.87-.05c5.85-1.31,11.26-3.74,16.24-7.16c4.73-3.24,8.1-7.65,10.2-13.11.15-.4.23-.83.34-1.25-.41.17-.58.42-.74.67-.93,1.49-1.73,3.1-2.81,4.47-4.61,5.86-10.45,10.03-17.06,13.11-2.28,1.06-4.54,2.14-7.04,3.31v.01Zm24.27-23.53c-3.81,3.77-7.65,7.51-12.51,9.8-4.84,2.27-10,3.5-15.14,4.77c10.77.65,22.09-4.06,27.65-14.57Zm-44.62-1.95c.17,1.16.5,2.39.49,3.62-.01,2.17-2.12,3.3-3.9,2.18-.68-.43-1.38-.88-1.96-1.45-2.08-2.04-6.11-1.63-8.42-.27-.04.02-.03.14-.06.36.66.11,1.32.27,1.99.31c2.54.13,4.78.95,6.65,2.79.44.43.98.76,1.51,1.07c1.64.93,3.64.46,4.88-.95c1.43-1.63,1.34-5.86-1.19-7.65l.01-.01Zm42.52,48.58c9.36-1.81,21.75-14.42,22.02-22.39-.33.67-.5,1.1-.74,1.48-1.83,2.97-3.46,6.09-5.55,8.84-2.89,3.81-6.79,6.47-10.75,8.98-1.65,1.05-3.32,2.06-4.99,3.09h.01Zm55.62-60.28c.1-.02.2-.03.3-.05-.03-.39.01-.8-.09-1.17-.76-2.73-1.53-5.46-2.33-8.18-1.09-3.7-2.3-7.37-3.26-11.11-.56-2.18-.71-4.46-1.04-6.7-1.2,9.93,3.26,18.4,6.42,27.2v.01Zm-73.65,22.23c5.21-.61,16.43-9.71,17.22-14.11-4.93,6.08-10.75,10.53-17.22,14.11Zm69.85-67.31c1.05-4.83,4.37-8.31,6.86-12.44-2.65.73-7.61,9.29-6.86,12.44Zm39.36,12.62c2.27-.7,4.55-1.41,6.82-2.11-1.88-.87-5.59.28-6.82,2.11Zm-89.15-2.5c-.04.12-.08.24-.12.36l6.62,2.45c.05-.15.11-.31.16-.46-1.97-1.52-4.27-2.08-6.66-2.35Zm78.72-50.94c-.37-2.19-.87-4.33-2.19-6.15.32,2.2.65,4.4,2.19,6.15Zm-60.91.29c.14.04.27.08.41.12c1.27-2.03,2.06-5.18,1.44-6.4-.65,2.21-1.25,4.25-1.85,6.28Zm69.88-.21h-.28v4.01h.28v-4.01Zm-78.75,3.64c.78-.72.89-2.2.23-3.56-.08,1.31-.15,2.38-.23,3.56Z" filter="url(#eFyUz4G5ucm2-filter)" fill="#fff"/><g filter="url(#eFyUz4G5ucm3-filter)"><path d="M262.3,430.76c8.33-9.35,16.57-18.6,24.78-27.82v4.54c.1.02.2.05.3.07.66-3.24,1.31-6.49,1.92-9.51.37,1.83.65,3.92,1.23,5.91.6,2.07,1.35,4.14,2.31,6.06.93,1.86,2.2,3.53,3.32,5.29.1-.07.2-.13.3-.2-.51-1.05-1.02-2.1-1.54-3.14-2.14-4.21-3.16-8.69-3.36-13.44-.4-9,2.14-17.19,6.45-24.79c5.23-9.22,8.86-19.03,11.02-29.45.2-.97.44-1.93.71-2.88.8-2.85,2.25-5.34,4.76-6.76c4.23-2.39,6.96-6.09,9.26-10.28.64-1.17,1.38-2.29,2.11-3.4c1.9-2.86,4.04-3.2,6.7-1.11.2.16.41.29.73.5-.18-.91-.4-1.67-.47-2.44-.24-2.56,1.28-4.09,3.75-3.74c2.8.4,5.59.9,8.39,1.31c2.46.36,4.93.68,7.4.95c2.79.3,5.16,1.52,7.09,3.56c2.82,2.97,5.54,6.04,8.3,9.06c1.89,2.08,3.76,4.18,5.68,6.23c3.55,3.79,4.3,8.16,3.3,13.28-1.68,8.62-3.13,17.3-4.4,25.99-.66,4.5-.8,9.08-1.04,13.63-.15,2.86-.38,5.63-2.47,7.81-.26.27-.36.72-.44,1.15c2.83-1.32,4.84-3.34,5.2-6.64.38-3.51.59-7.03.96-10.54.89-8.38,1.46-16.82,3.42-25.05.7-2.93,1.73-5.7,3.29-8.31.73-1.22.84-2.93.98-4.44.55-5.96,2.02-11.7,3.74-17.37c1.38-4.57,1.62-9.24,1.93-13.94.2-3.11.64-6.23,1.24-9.29.81-4.13,2.9-6.12,6.61-6.73c1.76-.29,3.56.75,4.02,2.4-.23.03-.44.09-.65.08-2.59-.08-3.99,1.49-3.42,4.28.37,1.8.91,3.6,1.64,5.27.31.72,1.24,1.46,1.98,1.59c1.38.24,1.41,1.03,1.31,2.09-.45,4.49-.9,8.99-1.34,13.48-.6,5.99-1.19,11.99-1.79,17.98-.4,3.98-.53,8.02-1.32,11.93-.66,3.26-1.98,6.39-3.19,9.51-3.1,8.02-6.4,15.95-9.39,24.01-1.17,3.16-1.81,6.55-2.56,9.86-1.02,4.52-3.66,7.2-7.91,8.68-7.83,2.72-15.57,5.68-23.32,8.63-13.14,4.99-26.25,10.05-39.37,15.06-1.44.55-2.7,1.23-3.3,2.86-.14.39-.89.79-1.34.77-7.34-.38-14.68-.84-22.02-1.27-6.23-.36-12.46-.71-18.69-1.07-.91-.05-1.83-.14-2.79-.22l-.01.01Zm61.36-50.68c.08-.02.16-.03.24-.05v-8.26c.19-.17.38-.33.57-.5.46.83.92,1.66,1.38,2.5.08-.09.16-.18.24-.27-.77-1.72-1.54-3.44-2.31-5.16.08-.06.17-.12.25-.19.85.68,1.64,1.47,2.55,2.04c4.03,2.5,8.26,4.47,12.95,5.23c6.35,1.02,11.78-.53,15.82-5.98.42-.56.73-1.34.77-2.04.47-7.24,2.01-14.26,4.12-21.15.36-1.18.18-1.98-.68-2.84-3.55-3.54-6.64-7.5-9.11-11.9-.98-1.74-2.11-2.36-3.91-2.53-4.13-.38-7.81-1.88-10.63-5.19-.29-.34-.64-.63-1.15-1.14.07.52.06.76.14.97.96,2.46.89,4.94.31,7.47-1.01,4.43-3.19,8.25-6.37,11.22-2.74,2.57-4.3,5.49-4.81,9.19-.67,4.82-1.75,9.6-2.04,14.44-.21,3.47.56,7,.96,10.5.14,1.22.46,2.43.7,3.64h.01Zm51.26,11.78c-.09-.06-.18-.12-.27-.17-.38.8-.77,1.59-1.14,2.4-1.06,2.35-2.67,4.03-5.03,5.09-5.18,2.33-10.3,4.8-15.43,7.25-1.07.51-2.07,1.17-3.1,1.76.05.12.1.24.15.36.42-.11.86-.17,1.26-.32c2.76-1.03,5.55-2.01,8.28-3.13c3.29-1.36,6.57-2.78,9.78-4.33c1.97-.95,3.29-2.69,4.11-4.77.53-1.35.93-2.75,1.38-4.13l.01-.01Zm-9.41,3.47c-.08-.14-.15-.27-.23-.41-7.61,1.72-14.94,4.27-21.89,7.98.18.1.33.09.46.05c4.18-1.25,8.37-2.45,12.52-3.78c2.58-.82,5.13-1.79,7.66-2.77.54-.21.98-.71,1.47-1.07h.01Z" fill="#fff"/><path d="M384.19,392.75c1.35-3.57,2.61-7.18,4.08-10.69c2.69-6.43,5.51-12.81,8.27-19.21c1.61-3.74,2.31-7.69,2.62-11.75.48-6.29.99-12.57,1.55-18.85.34-3.79.57-7.6,1.24-11.33c1.01-5.64,3.21-10.9,5.65-16.02c1.27-2.65,3.28-4.55,6.18-5.27c2.67-.66,5.24.83,5.54,3.39-.94,0-1.88.04-2.81,0-1.42-.08-2.37.62-2.89,1.9-1,2.41-1.04,4.95-.59,7.48.22,1.23,1.06,2.1,2.29,2.42c1,.26,1.18.8.87,1.83-3.87,13.32-7.66,26.65-11.54,39.97-1.44,4.93-2.98,9.82-4.62,14.68-1.62,4.8-4.59,8.76-7.75,12.56-2.47,2.98-5.05,5.85-7.59,8.77-.1.11-.23.19-.35.28l-.15-.14v-.02Z" fill="#fff"/><path d="M400.04,375.14c.67-1.09,1.36-2.17,1.99-3.29c2.09-3.72,2.78-7.95,4-11.98c2.04-6.76,3.94-13.57,6.06-20.3c1.01-3.21,2.96-5.81,6.26-6.75c1.34-.38,2.86-.28,4.27-.12c1.44.17,2.9,2.12,2.28,4.13-1.15-.67-2.36-1.24-3.55-.15-1.11,1.03-1.4,2.45-1.78,3.82.11.07.22.14.33.21.48-.71.97-1.42,1.45-2.13.52-.76,1.14-1.13,2.06-.7.72.34.89.8.45,1.5-.55.86-1.1,1.72-1.64,2.59-3.64,5.91-7.18,11.9-10.95,17.72-3.47,5.35-7.18,10.53-10.79,15.79-.14-.11-.29-.22-.43-.33l-.01-.01Z" fill="#fff"/></g><g id="eFyUz4G5ucm7" transform="translate(.000001 0)" opacity="0"><path d="M308.25,261.81c-2.71-2.25-5.4-4.41-7.99-6.68-1.57-1.37-2.09-3.37-2.43-5.39-.19-1.12-.24-2.26-.26-3.5c1.94,1.95,4.56,2.33,6.81,3.51c2.08,1.09,3.57,2.87,3.82,5.32.22,2.21.05,4.47.05,6.73v.01Z" fill="#bfe540"/><path d="M296.2,260.53c-2.24-1.17-4.41-2.05-6.3-3.35-2.04-1.4-2.67-3.78-2.88-6.21-.08-.94-.01-1.9-.01-3.07.68.53,1.2,1.03,1.8,1.37c1.24.7,2.54,1.28,3.77,1.98c3.55,2,4.27,4.8,3.62,9.28Z" fill="#bfe540"/><path d="M295.53,261.29c2.16,1.82,4.44,3.45,5.75,6.04c1.06,2.11.65,4.22-.33,6.25-.27.55-.53,1.1-.93,1.93-1.41-1.06-2.95-2-4.22-3.24-1.61-1.57-1.74-3.71-1.35-5.86.3-1.65.69-3.28,1.08-5.13v.01Zm.71,5.3c-.3,2.29,1.69,6.23,3.85,7.34-1.33-2.53-2.61-4.98-3.85-7.34Z" fill="#bfe540"/><path d="M275.3,280.81c-5.36-.56-7.34-2.29-8.33-7.28c4.04-1.34,9,3,8.33,7.28Z" fill="#bfe540"/><path d="M283.6,264.96c-.28-.13-.79-.21-1.08-.52-1.2-1.29-2.03-2.83-1.28-4.62.82-1.97,1.89-3.84,2.98-6.02.74,2.03,1.15,3.78.65,5.65-.22.8-.53,1.57-.72,2.38-.21.93-.33,1.88-.55,3.14v-.01Z" fill="#bfe540"/><path d="M322.28,245.99c0,3.07-.4,5.83-2.25,8.06-1.08,1.3-2.47,2.34-3.75,3.46-1.54,1.35-3.1,2.66-4.74,4.06c0-1.98-.08-3.93.02-5.87.16-3.01,1.9-4.91,4.39-6.18.82-.42,1.74-.63,2.54-1.07c1.03-.56,1.99-1.26,2.97-1.9.21-.14.41-.28.82-.55v-.01Z" fill="#bfe540"/><path d="M323.08,259.92c.06-1.94-.54-3.88.55-5.78.85-1.48,1.98-2.48,3.44-3.17c1.93-.91,3.85-1.82,5.74-2.71.84,5.72-3.29,10.8-9.73,11.67v-.01Z" fill="#bfe540"/><path d="M253.31,254.31c-.62-.41-1-.59-1.3-.86-1.42-1.23-3.11-1.7-4.88-1.81-2.29-.14-3.97-1.16-5.16-3.2-1.68-2.91-3.84-5.32-6.81-6.87-.26-.14-.53-.48-.57-.77-.02-.17.35-.48.6-.61c4.84-2.41,9.58-2,14.1.83c2.09,1.31,2.57,3.63,2.73,6c.1,1.5.09,3.01.3,4.49.12.85.58,1.66,1,2.79l-.01.01Zm-13.93-13.38c1.67,1.08,3.68,2,5.19,3.47c1.34,1.31,2.7,2.52,4.23,3.56.4.27.73.64,1.09.96-2.52-4.65-7.02-8.77-10.51-7.99Z" fill="#bfe540"/><path d="M309.18,228.46c-1.69-.99-3.33-1.8-4.81-2.85-2.45-1.74-3.1-4.33-2.63-7.24.2-1.24.62-2.45.95-3.66.07-.26.21-.5.26-.62c1.82,2.24,3.47,4.19,5.03,6.22.41.53.73,1.27.8,1.95.21,2.1.28,4.22.39,6.21l.01-.01Z" fill="#bfe540"/><path d="M308.9,242.88c-.98-.71-1.85-1.49-2.84-2.03-2.52-1.37-2.88-4.04-2.33-6.19.27-1.05.87-2,1.31-3.01.36-.82.71-1.65,1.06-2.48c2.18,1.55,3.51,8.05,2.8,13.7v.01Z" fill="#bfe540"/><path d="M279.44,246.73c-1.37-3.59-.16-8.83,6.94-9.48-1.09,4.13-2.92,7.68-6.94,9.48Z" fill="#bfe540"/><path d="M289.2,239.19c1.94,2.98,5.67,4.88,5.06,9.39-3.99.95-6.62-1.6-5.95-5.78.19-1.16.39-2.32.59-3.48.1-.04.2-.08.3-.12v-.01Z" fill="#bfe540"/><path d="M279.78,252.96c-.8-1.57-.55-3.46.79-4.44c1.48-1.08,3.08-1.97,4.64-2.94.58,3.38-2.07,6.97-5.43,7.38Z" fill="#bfe540"/><path d="M254.96,248.53c1.09.74,2.1,1.37,3.04,2.1c1.13.88,1.5,2.91.88,4.21-.26.55-.58.59-1.1.33-2.52-1.24-3.4-3.18-2.83-6.63l.01-.01Z" fill="#bfe540"/><path d="M239.38,240.92c3.49-.78,7.99,3.34,10.51,7.99-.36-.32-.69-.69-1.09-.96-1.53-1.04-2.89-2.25-4.23-3.56-1.51-1.47-3.52-2.39-5.19-3.47Z" fill="#bfe540"/><path d="M296.24,266.59c1.24,2.37,2.52,4.81,3.85,7.34-2.16-1.11-4.15-5.05-3.85-7.34Z" fill="#fff" stroke="#bfe540" stroke-miterlimit="10"/><path d="M374.2,296.03c-3.68-1.43-7.58-1.37-11.59-1.64.22-.32.3-.56.47-.66c2.56-1.72,5.27-2.52,8.26-1.31.85.35,1.66.8,2.51,1.15c1.53.63,3.08,1.23,4.71,1.87-3.8,3.39-7.63,6.92-13.28,6.65-3.02-.15-4.77-2.81-3.8-5.77.09-.27.68-.54,1.02-.52c3.89.17,7.77.4,11.65.61.01-.13.02-.25.04-.38h.01Z" fill="#bfe540"/><path d="M380.47,278.02c-2.5-4.43-1.56-9.3,4.27-10.39c2.29-.43,4.62-.66,6.63-2.15-.86,3.39-1.63,6.81-4.72,8.83-1.99,1.3-4.07,2.45-6.18,3.71Zm8.34-9.23c-.09-.12-.18-.25-.27-.37-1.71,1.26-3.42,2.52-5.13,3.77.08.11.15.22.23.33c1.92-.95,3.92-1.78,5.18-3.73h-.01Z" fill="#bfe540"/><path d="M369.47,283.54c.62.28.93.35,1.17.53c2.7,2.02,5.78,2.77,9.02,3.05c1.55.13,2.91.67,3.82,2.07.71,1.08.56,1.55-.56,2.13-3.19,1.65-6.17.74-9.1-.77-1.96-1.01-3.73-2.25-4.22-4.68-.13-.66-.09-1.36-.14-2.33h.01Z" fill="#bfe540"/><path d="M310.9,228.44c0-1.57-.15-3.17.05-4.71.17-1.29.49-2.72,1.21-3.73c1.49-2.08,3.28-3.93,4.92-5.84c1.98,4.93,2.27,9.9-3.44,12.56-.99.46-1.87,1.17-2.74,1.72Z" fill="#bfe540"/><path d="M311.22,242.56c-.76-4.75-.1-9.26,2.28-13.49c1.08,2.56,3.13,4.67,2.92,7.73-.09,1.32-.59,2.39-1.57,3.16-1.17.92-2.42,1.74-3.63,2.6Z" fill="#bfe540"/><path d="M385.27,287.63c-3.05-2.15-6.31-2.54-9.66-2.74-1.63-.1-3.27-.66-4.46-2.07c4.71-3.5,13.08-.75,14.12,4.82v-.01Z" fill="#bfe540"/><path d="M366.67,280.9c.76-2.31,3.5-4.34,5.58-4.21c1.95.13,3.89.57,5.83.88.05.12.1.23.15.35-.74.47-1.44,1.02-2.22,1.4-2.94,1.43-5.89,2.9-9.35,1.58h.01Z" fill="#bfe540"/><path d="M390.82,272.16c-.43,2.77-.63,5.65-2.17,8.01-.75,1.15-2.06,1.92-3.14,2.83-.14.11-.55.06-.71-.08-.89-.77-1.14-2.81-.43-3.79.45-.62,1-1.19,1.58-1.69.94-.8,2.05-1.41,2.88-2.3.8-.86,1.33-1.97,1.98-2.97l.01-.01Zm-3.95,7.28c-1.32.01-1.75.43-1.67,1.54.62-.57,1.15-1.06,1.67-1.54Z" fill="#bfe540"/><path d="M364.7,243.34c-.46-1.25-.94-2.76-.63-4.34.12-.6.52-1.31,1-1.63c1.39-.93,2.89-1.69,4.56-2.64.01,2.05.53,3.94-1.23,5.37-1.25,1.02-2.44,2.13-3.7,3.24Z" fill="#bfe540"/><path d="M388.81,268.79c-1.25,1.95-3.25,2.78-5.18,3.73-.08-.11-.15-.22-.23-.33c1.71-1.26,3.42-2.52,5.13-3.77.09.12.18.25.27.37h.01Z" fill="#fff" stroke="#bfe540" stroke-miterlimit="10"/><path d="M386.91,264.56c-2.07.22-3.99.54-5.92.6-2.28.07-3.94-1.11-4.86-3.3-.41-.96-.73-1.96-1.21-3.25.85.27,1.39.4,1.9.6c2.29.85,4.64,1.57,6.84,2.63c1.2.58,2.12,1.75,3.25,2.72Z" fill="#bfe540"/><path d="M386.87,279.44c-.52.48-1.05.96-1.67,1.54-.09-1.11.35-1.53,1.67-1.54Z" fill="#fff" stroke="#bfe540" stroke-miterlimit="10"/></g><g id="eFyUz4G5ucm36" transform="translate(.000001 0)" opacity="0"><path d="M289.11,298.43c-.62-1.37-1.18-2.78-1.89-4.1-.72-1.34-1.59-2.59-2.39-3.87c2.08-1.17,5.21.17,5.94,2.68.8,2.72-.33,5.24-.6,7.9-1.49-.6-2.74-1.05-3.95-1.61-2.26-1.04-3.58-3.96-3.05-6.69.1-.54.38-1.04.57-1.56.37.36.83.67,1.1,1.1c1.23,1.9,2.41,3.84,3.61,5.76.11.18.23.37.34.55.1-.05.2-.1.3-.16h.02Z" fill="#bfe540"/><path d="M266.77,300.28c.6-.3,1.17-.66,1.8-.87c1.45-.5,2.94-.88,4.38-1.41.55-.2,1-.67,1.49-1.02.23-.16.46-.32.69-.48.12.27.33.52.35.8.2,2.55-1.56,5.19-3.98,5.45-2.17.23-4.39-.05-6.9-.11.41-.57.64-.82.77-1.12.26-.58.53-1.18.66-1.8.64-3.03,2.35-4.77,5.97-4.92.76-.03,1.53.07,2.29.16.23.03.57.19.62.37.06.2-.07.57-.24.72-.32.27-.71.48-1.1.61-1.13.36-2.28.68-3.42.99-1.67.46-2.84,1.25-3.37,2.63h-.01Z" fill="#bfe540"/><path d="M291.66,268.46c-4.68-1.61-6.38-4.93-5.05-10.17c1.67,1.47,3.87,2.01,5.05,3.97c1.22,2.03.32,4.12,0,6.2Z" fill="#bfe540"/><path d="M275.58,266.2c-1.78-.14-3.36-.24-4.93-.4-.26-.03-.59-.29-.71-.54-.69-1.42-1.33-2.86-2.05-4.44c4.29.56,6.12.82,7.69,5.38Z" fill="#bfe540"/><path d="M288.05,281.2c-1.64-.89-3.04.08-4.51.36-2.46.47-4.37-.45-5.55-2.73-.29-.56-.57-1.13-.77-1.72-.4-1.14-.74-2.31-1.11-3.47c4.85-.73,10.75,2.94,11.95,7.56h-.01Zm-2.21-1.13c-1.67-1.84-3.7-3.04-6-3.76c1.78,1.63,3.6,3.2,6,3.76Z" fill="#bfe540"/><path d="M324.14,260.86c.49,2.3.94,4.18,1.27,6.07.38,2.21-.27,4.11-2.01,5.46-1.34,1.04-2.79,1.92-4.29,2.93-.48-1.54-.94-2.92-1.34-4.33-.49-1.72-.19-3.42.93-4.7c1.64-1.88,3.52-3.55,5.44-5.44v.01Zm-5.09,12.63c.09.06.17.12.26.19c2.73-1.59,4.71-4.92,4.33-7-1.47,2.19-3.03,4.5-4.58,6.82l-.01-.01Z" fill="#bfe540"/><path d="M330.67,299.41c.65-.95,1.35-1.88,1.93-2.87.82-1.38,1.54-2.83,2.34-4.23.16-.28.45-.48.69-.72.24.28.62.52.71.84.62,2.16.43,4.41-1.69,5.94-1.47,1.06-3.2,1.75-5.02,2.71-.46-2.27-1.02-4.21-1.2-6.19-.29-3.08,2.99-5.72,5.89-4.91.64.18.52.53.28.98-1.28,2.39-2.55,4.78-3.81,7.18-.17.33-.31.68-.46,1.02.12.08.23.16.35.24l-.01.01Z" fill="#bfe540"/><path d="M354.81,302.64c-1.89,0-3.78.11-5.66-.02-3.51-.25-5.25-2.9-4.39-6.32c1.26.67,2.53,1.42,3.85,2.03c1.35.62,2.75,1.11,4.25,1.71-.75-1.28-1.76-1.99-3-2.44-1.43-.53-2.85-1.09-4.26-1.69-.27-.11-.44-.47-.66-.71.29-.21.59-.61.88-.61c1.45.03,2.93-.03,4.32.31c1.41.34,2.46,1.41,2.99,2.89.55,1.54,1.07,3.09,1.68,4.85Z" fill="#bfe540"/><path d="M327.67,268.28c0-1.74-.21-3.46.08-5.08.17-.97,1.01-1.92,1.76-2.64.97-.92,2.15-1.6,3.23-2.37c2.27,3.9-.09,8.89-5.07,10.09Z" fill="#bfe540"/><path d="M352.12,273.14c.52,3.21-2,6.75-5.04,7.27-.64.11-1.3.15-1.93.31-.98.24-1.08-.19-.82-1.01.13-.41.25-.83.34-1.26.46-2.22,1.73-3.66,3.84-4.27c1.17-.34,2.35-.68,3.61-1.04Z" fill="#bfe540"/><path d="M351.56,260.73c-.25,4.07-3.65,6.43-7.4,5.15c1.01-3.91,4.1-4.64,7.4-5.15Z" fill="#bfe540"/><path d="M333.01,279.46c1.98-1.92,4.36-2.96,6.98-3.52-1.96,1.95-4.37,2.95-6.98,3.52Z" fill="#bfe540"/><path d="M331.34,280.12c1.65-4.38,3.69-5.58,12.14-6.99-.05.33-.06.63-.15.9-.42,1.23-.84,2.46-1.3,3.68-1.17,3.1-3.34,4.29-6.48,3.59-.34-.07-.67-.16-1-.25-1.07-.31-2.14-.63-3.2-.94l-.01.01Zm1.68-.66c2.61-.58,5.02-1.57,6.98-3.52-2.61.56-5,1.6-6.98,3.52Z" fill="#bfe540"/><path d="M290.65,224.25c2.26-.77,4.51-1.18,6.86-1.06c1.9.1,3.75.41,4.84,2.19.76,1.25,1.23,2.69,1.77,4.07.06.16-.18.59-.39.7-2.75,1.59-7.04,1.25-9.31-.86-.86-.81-1.47-1.91-2.19-2.88-.5-.68-1-1.37-1.59-2.16h.01Zm4.24,2.46c2.68.42,5.19.82,7.55,1.19-.78-1.62-4.98-2.3-7.55-1.19Z" fill="#bfe540"/><path d="M267.6,245.99c-1.67-.57-3.18-1-4.63-1.6-2.1-.86-3.5-3.56-2.97-6.08.46-2.22,1.25-4.37,1.9-6.54.11-.02.23-.05.34-.07c1.46,2.13,2.94,4.24,4.37,6.39c1.61,2.4.45,5.17.98,7.9h.01Zm-4.71-9.01c-.21,2.46,1.29,5.61,2.76,6.22-.87-1.96-1.77-3.99-2.76-6.22Z" fill="#bfe540"/><path d="M248.16,261.38c2.43-.74,4.41-.87,6.41.03c1.67.76,2.39,2.27,2.89,3.92.07.25-.27.88-.51.94-.96.25-1.95.43-2.93.45-.57,0-1.32-.17-1.7-.56-1.4-1.46-2.67-3.05-4.16-4.78Zm4.01,1.5c1.29.78,2.35,1.42,3.42,2.07-.76-1.24-1.65-2.23-3.42-2.07Z" fill="#bfe540"/><path d="M256.39,287.41c-.13.87-.45,1.23-1.21,1.1-.26-.04-.53-.1-.79-.15-3.54-.67-3.57-2.42-2.26-5.17.64-1.35,1.73-1.48,2.44-.21.77,1.38,1.23,2.94,1.82,4.42v.01Z" fill="#bfe540"/><path d="M262.89,236.97c.99,2.23,1.89,4.26,2.76,6.22-1.47-.6-2.97-3.76-2.76-6.22Z" fill="#fff" stroke="#bfe540" stroke-miterlimit="10"/><path d="M285.85,280.07c-2.4-.56-4.22-2.13-6-3.76c2.31.72,4.33,1.92,6,3.76Z" fill="#fff" stroke="#bfe540" stroke-miterlimit="10"/><path d="M309.28,250.27c-5.78-2.66-7.46-5.37-6.77-10.8.24.17.44.29.63.44.87.7,1.66,1.55,2.61,2.08c2.13,1.18,3.23,2.93,3.29,5.42.02.9.15,1.8.24,2.86Z" fill="#bfe540"/><path d="M329.29,223.81c-2.04,3.37-3.52,6.66-7.52,7.23-2.04.29-3.84-.4-5.65-1.1-.18-.07-.33-.67-.25-.96.2-.72.53-1.39.81-2.08c1.02-2.54,3.05-3.69,5.51-3.74c2.26-.05,4.52.39,7.11.65h-.01Zm-12.65,4.4c2.78-.49,5.29-.93,8.13-1.42-3.07-.85-5.59-.47-8.13,1.42Z" fill="#bfe540"/><path d="M352.33,245.91c0-1.39,0-2.65,0-3.91.02-1.92.56-3.61,1.77-5.14c1.06-1.34,1.91-2.86,2.86-4.29.19-.28.41-.54.78-1.02.72,2.32,1.51,4.38,1.99,6.51.55,2.43-1.03,5.22-3.25,6.17-1.33.57-2.69,1.1-4.14,1.69l-.01-.01Zm1.4-2.15c2.44-2.2,4.07-3.87,2.88-6.79.03,2.73-1.95,4.5-2.88,6.79Z" fill="#bfe540"/><path d="M333.26,237.14c2.81.48,5.54.83,7.06,3.64c1.03,1.91.96,3.96.46,5.99-4.38-1.67-5.98-5.5-7.51-9.63h-.01Z" fill="#bfe540"/><path d="M362.16,266.06c.06-3.98,3.42-6.26,8.4-4.8.03.07.09.18.07.21-1.01,1.32-1.92,2.74-3.07,3.92-1.57,1.62-3.47,1.57-5.4.67Z" fill="#bfe540"/><path d="M334.28,245.63c1.86,1.09,3.57,1.95,5.12,3.04c1.23.87,1.5,2.65.76,3.93-.15.27-.81.46-1.13.35-2.1-.73-3.72-1.98-4.1-4.45-.13-.84-.37-1.67-.65-2.87Z" fill="#bfe540"/><path d="M363.67,288.45c.24-2.05.36-3.94,1.56-5.51.87-1.14,1.84-1.03,2.53.24c1.4,2.56.5,4.56-2.27,5.03-.52.09-1.05.14-1.82.24Z" fill="#bfe540"/><path d="M310.81,250.17c.12-1.56.05-3.09.4-4.51.25-1,.95-1.97,1.68-2.72.66-.67,1.67-.94,2.44-1.53.74-.57,1.35-1.3,2.02-1.97.61,5.53-.8,7.87-6.54,10.72v.01Z" fill="#bfe540"/><path d="M325.5,248.74c-.2-4.34,3.07-6.4,5.23-9.23.44,2.01,1.44,3.91.72,6.04-.69,2.05-2.22,3.17-4.34,3.19-.57,0-1.14,0-1.61,0Z" fill="#bfe540"/><path d="M364.81,248.03c.28,5.53-1.94,7.3-4.28,7.1-.55-2.51.04-3.99,2.03-5.3.75-.5,1.42-1.13,2.25-1.8Z" fill="#bfe540"/><path d="M316.64,228.21c2.53-1.9,5.06-2.27,8.13-1.42-2.84.5-5.35.94-8.13,1.42Z" fill="#fff" stroke="#bfe540" stroke-miterlimit="10"/></g><g id="eFyUz4G5ucm67" transform="translate(0 0.000001)" opacity="0"><path d="M319.05,273.48c1.56-2.31,3.11-4.63,4.58-6.82.38,2.09-1.59,5.41-4.33,7-.09-.06-.17-.12-.26-.19l.01.01Z" fill="#bfe540"/><path d="M277.76,203.66c3.42-.67,7.06-1.19,7.9.91h-3.92c.27.3.39.49.55.6c3.69,2.53,6.47,5.9,8.44,9.98c1.45,3.02,1.04,5.9-1.07,8.83-.59-5.45-1.07-10.74-5.47-14.39c2.92,4.74,3.5,10.32,5.36,15.5-2.15-1.5-5.07-1.47-6.62-3.96-1-1.62-1.69-3.35-1.33-5.27.76-4.09-.45-7.57-2.82-10.76-.32-.43-.62-.88-1.01-1.44h-.01Z" fill="#bfe540"/><path d="M228.64,265.37c.4.11.58.14.75.2c1.76.6,3.5,1.32,5.29,1.79c2.67.69,4.69,2.02,5.53,4.89.57,1.96-.07,3.7-.87,5.84-.89-1.92-2.43-2.31-3.86-2.91-2.01-.84-3.38-2.41-4.34-4.36-.85-1.72-1.61-3.49-2.5-5.44v-.01Zm6.3,6.53c.1-.13.21-.26.31-.39-1.06-.92-2.13-1.83-3.19-2.75-.08.1-.17.2-.25.3l3.13,2.83v.01Z" fill="#bfe540"/><path d="M229.97,255.4c.32-2.34.24-4.8,1.67-6.84c1.03-1.46.97-3.01.71-4.64-.05-.33-.17-.66-.31-1.16c3.73,1.6,7.31,3.06,7.95,7.76.08.56.08,1.14.12,1.76-2.11-.26-4.05-.53-6-.72-.26-.03-.62.31-.84.56-1,1.15-1.98,2.33-2.96,3.5-.11-.07-.23-.15-.34-.22Zm7.48-4.4c-1.12-1.35-2.24-2.7-3.37-4.08-.06,1.89,1.43,3.84,3.37,4.08Z" fill="#bfe540"/><path d="M274.35,205.42c.23.11.41.14.49.25c1.41,1.97,2.87,3.91,4.18,5.95.37.57.45,1.43.46,2.16.03,1.89-.04,3.78-.07,5.67-.02,1.09.05,2.21-.9,3.05-.13-1.01-.02-2.09-.43-2.87-.63-1.18-1.49-2.31-2.49-3.17-2.36-2.04-3.18-4.46-2.24-7.51.35-1.15.66-2.32,1.01-3.53h-.01Z" fill="#bfe540"/><path d="M294.75,199.05c2.36.55,4.8.85,7.05,1.71c3.27,1.25,4.42,4.17,3.32,7.6-.37,1.16-.93,2.27-1.52,3.68-.29-.57-.46-.76-.49-.97-.32-2.62-2.01-4.37-3.65-6.14-1.56-1.68-3.12-3.36-4.68-5.05-.09-.1-.14-.26-.2-.39.05-.15.11-.3.16-.45l.01.01Z" fill="#bfe540"/><path d="M242.55,255.36c-1.33.09-2.66.17-3.98.28-1.34.12-2.24.92-2.86,2.11-.46.87-.9,1.75-1.41,2.59-1.46,2.4-3.69,3.15-6.29,3.15c1.02-5.72,5.68-9.79,11.23-9.65c1.16.03,2.31.74,3.46,1.14-.05.13-.1.25-.15.38Z" fill="#bfe540"/><path d="M259.36,212.12c1.79,1.05,3.58,1.96,5.2,3.1c1.7,1.2,2.79,2.86,2.17,5.15-.18.65-.51,1.35-.98,1.8-.74.71-1.66,1.23-2.54,1.86-.99-1.94-2.17-3.7-2.81-5.65-.63-1.94-.71-4.07-1.05-6.26h.01Zm5.18,8.69c.14-1.86-1.18-4.26-2.71-5.08.91,1.72,1.74,3.26,2.71,5.08Z" fill="#bfe540"/><path d="M310.23,203.7c.84,2,1.74,3.84,2.37,5.77.27.83.21,1.95-.12,2.76-.7,1.69-1.67,3.26-2.55,4.92-3.56-4.37-3.47-9.87.3-13.45Z" fill="#bfe540"/><path d="M269.49,214.55c1.4,1.03,2.63,1.83,3.76,2.77c2.35,1.96,2.93,4.57,1.8,7.46-.35.91-.8,1.14-1.76.81-2.45-.85-3.75-1.55-3.79-5.66-.02-1.73,0-3.46,0-5.38h-.01Zm2.71,4.43c-.15.07-.29.15-.44.22.58,1.44,1.15,2.88,1.73,4.32.17-.07.33-.15.5-.22-.6-1.44-1.19-2.88-1.79-4.31v-.01Z" fill="#bfe540"/><path d="M247.81,237.56c-1.36,0-2.65,0-3.93,0-2.44,0-3.39-.61-4.22-2.99-.45-1.31-.68-2.71-1.06-4.31c2.34.61,4.48,1.02,6.51,1.75c1.95.7,2.87,2.82,2.71,5.56l-.01-.01Zm-7.14-3.85c1.44,1.39,2.79,2.33,4.52,2.55-1.19-1.21-2.31-2.55-4.52-2.55Z" fill="#bfe540"/><path d="M244.38,258.65c-.55,1.44-.93,2.99-1.71,4.29-1.07,1.77-2.74,2.51-4.84,2.15-1.64-.28-3.31-.41-4.89-.6c2.78-3.62,7.21-4.3,11.44-5.84Z" fill="#bfe540"/><path d="M250.4,225.98c2.01,1.68,4.53,2.08,5.95,4.18c1.1,1.62,1.08,3.47.42,5.3-3.96-.48-5.75-3.08-6.37-9.48Z" fill="#bfe540"/><path d="M241.67,277.4c2.22-.17,4.45-.55,6.66-.45c1.97.09,3.38,1.55,4.54,3.14.39.53.33,1.02-.4,1.09-1.17.11-2.39.37-3.51.14-2.44-.5-4.76-1.44-6.8-2.99-.2-.15-.37-.35-.56-.52.02-.13.04-.27.06-.4l.01-.01Z" fill="#bfe540"/><path d="M230.13,271.61c1.49,3.07,4.08,4.55,6.54,6.2c1.65,1.11,1.73,3.5.19,4.78-.26.22-.87.25-1.19.09-1.46-.73-2.55-1.93-3.15-3.47-.9-2.3-1.68-4.66-2.49-6.99-.03-.09.03-.21.1-.61Z" fill="#bfe540"/><path d="M236.42,286.34c2.15-3.89,8.19-5.72,12.57-3.89-1.15,2.14-5.41,3.46-12.57,3.89Z" fill="#bfe540"/><path d="M292.54,213.02c1.33.63,2.6,1.24,3.87,1.83c2.25,1.04,3.13,3.05,2.66,6.14-4.32-.73-6.79-3.76-6.53-7.98v.01Z" fill="#bfe540"/><path d="M292.79,318.1c-1.54,0-2.82-1.44-2.78-3.13.03-1.49,1.39-2.86,2.83-2.86c1.85,0,3.09,1.23,3.09,3.07c0,1.64-1.38,2.93-3.13,2.92h-.01Z" fill="#bfe540"/><path d="M241.66,228.04c1.6-.95,2.84-1.87,4.2-2.47c1.57-.69,3.31.68,3.35,2.46c0,.43-.07.87-.16,1.29-.27,1.34-.54,1.51-1.8,1.06-1.44-.51-2.88-1.02-4.32-1.56-.33-.12-.61-.37-1.28-.8l.01.02Z" fill="#bfe540"/><path d="M250.12,283.57c.33,2.71-.59,4.09-2.88,4.74-2.03.57-3.92-.08-6.09-.63.37-.27.56-.53.79-.57c2.95-.49,5.57-1.81,8.18-3.54Z" fill="#bfe540"/><path d="M288.06,201c3.15.43,4.76,3.86,3.14,6.28-.2.29-1.1.47-1.31.28-.62-.59-1.35-1.32-1.52-2.11-.3-1.42-.23-2.93-.31-4.45Z" fill="#bfe540"/><path d="M290.93,326.56c-.66.51-1.11,1.13-1.5,1.09-.46-.05-.87-.67-1.3-1.05.39-.46.77-1.27,1.18-1.3.45-.03.93.69,1.62,1.25v.01Z" fill="#bfe540"/><path d="M277.85,311.76c.3.44.89.95.82,1.31-.09.45-.69.89-1.16,1.1-.15.07-.89-.63-.86-.93.05-.51.49-.99.76-1.48.15,0,.29,0,.44,0Z" fill="#bfe540"/><path d="M300.76,214.32c-1.96-1.04-3.69-1.78-5.22-2.83-1.3-.89-1.5-2.55-1.63-4.04-.12-1.4-.03-2.82-.03-4.41.31.23.56.41.82.6.97.7,1.91,1.45,2.92,2.09c2.08,1.32,3.36,3.07,3.15,5.74-.06.81,0,1.63,0,2.86l-.01-.01Z" fill="#bfe540"/><path d="M259.92,229.28c-.5-.36-.96-.8-1.5-1.05-2.37-1.09-3.56-2.95-3.77-5.62-.1-1.31-.47-2.59-.73-3.93c5.63,1.31,8.22,5.92,6,10.59v.01Z" fill="#bfe540"/><path d="M254.64,243.52c-3.17-1.12-5.57-5.3-4.93-8.63c1.77.77,3.58,1.44,4.84,2.99c1.43,1.77.41,3.69.09,5.64Z" fill="#bfe540"/><path d="M267.26,224.12c.8,3.52-1.47,5.77-5.97,5.91.05-2.92,3.01-5.85,5.97-5.91Z" fill="#bfe540"/><path d="M270.31,206.72c.51,2.29.57,4.08-.74,5.66-.83,1-2.26,1.44-3.42.92-.28-.12-.59-.78-.5-1.05.31-.96.62-2.02,1.26-2.73.9-1.01,2.09-1.74,3.4-2.79v-.01Z" fill="#bfe540"/><path d="M252.66,223.63c.06,1.13-.24,1.49-1.15,1.15-.89-.33-1.86-.47-2.72-.86-.5-.23-1.09-.73-1.22-1.23-.09-.34.52-.91.88-1.32.19-.22.52-.33.79-.46c1.84-.88,2.75-.41,3.22,1.66.1.42.16.85.19,1.05l.01.01Z" fill="#bfe540"/><path d="M301.64,237.48c-.29-.25-.44-.32-.49-.43-.79-1.71-2.29-2.33-3.93-2.77-.88-.24-1.74-.55-2.59-.86-.19-.07-.33-.29-.7-.63c2.17-.5,4.11-.58,5.91.42c1.5.83,1.95,2.33,1.81,4.28l-.01-.01Z" fill="#bfe540"/><path d="M294.89,226.71c2.57-1.12,6.77-.44,7.55,1.19-2.36-.37-4.87-.76-7.55-1.19Z" fill="#fff" stroke="#bfe540" stroke-miterlimit="10"/><path d="M257.93,217.19h-5.16c.24-1.02,1.72-2.07,2.92-2.08c1.11,0,1.92.74,2.24,2.08Z" fill="#bfe540"/><path d="M329.87,224.63c1.83-5.04,3.65-10.04,5.46-15.04-1.57,1.87-2.92,3.85-3.63,6.2-.7,2.31-1.35,4.63-2.07,7.13-.91-1.13-1.17-2.33-1.27-3.58-.28-3.4,1.24-6.07,3.36-8.41c2-2.2,4.13-4.28,6.24-6.45-1.19.06-2.51.12-3.86.19.49-2.01,4.14-1.71,7.89-1.03-.3.39-.53.73-.8,1.02-1.69,1.84-2.68,4.07-3.07,6.52-.2,1.29-.03,2.68.16,3.99.62,4.11-.92,6.83-4.72,8.17-1.18.41-2.35.82-3.7,1.3l.01-.01Z" fill="#bfe540"/><path d="M366.09,253.8c.11-.27.27-.53.34-.81.26-1.06.57-2.11.73-3.19.23-1.52.25-3.08.51-4.59.49-2.82,2.12-4.65,4.77-5.53c3.96-1.32,7.86-1.55,11.67.53.29.16.54.37.8.54-.08.19-.09.29-.14.32-3.2,1.67-5.57,4.23-7.49,7.33-1.08,1.74-2.58,2.87-4.67,3.06-2.33.21-4.56.8-6.53,2.33l.01.01Zm14.35-12.79c-1.66-.32-3.12-.05-4.44.61-2.39,1.18-3.98,3.28-5.77,5.16-.54.56-1.04,1.16-1.55,1.75c1.53-.69,2.89-1.53,4.25-2.4.45-.29.88-.61,1.29-.96.97-.85,1.84-1.85,2.89-2.57.97-.66,2.12-1.03,3.34-1.59h-.01Z" fill="#bfe540"/><path d="M387.22,242.65c-.11,1.31-.26,2.56-.31,3.81-.02.4.09.98.36,1.18c2.13,1.61,2.49,3.97,2.64,6.43.03.51,0,1.02,0,1.54-1.46-.15-3.67-2.51-4.11-4.21-2.25.32-4.47.64-6.93.99.45-2.84.94-5.47,3.28-7.05c1.57-1.06,3.35-1.79,5.06-2.68l.01-.01Zm-2.13,3.96c-1.24,1.5-2.48,2.99-3.72,4.49.11.09.21.18.32.26c1.76-1.1,3.39-2.31,3.41-4.76l-.01.01Z" fill="#bfe540"/><path d="M341.12,222.52c-.19-.54-.5-1.07-.54-1.62-.16-2.41-.3-4.82-.3-7.23c0-.87.21-1.87.67-2.58c1.25-1.93,2.68-3.73,4.22-5.84.46,1.56.89,2.92,1.27,4.29.68,2.46.2,4.62-1.63,6.4-.33.33-.65.67-1,.98-1.62,1.46-2.86,3.09-2.37,5.55-.11.02-.22.04-.33.06l.01-.01Z" fill="#bfe540"/><path d="M316.33,211.89c-1.09-2.42-2.38-4.74-1.67-7.46.46-1.75,1.74-2.88,3.29-3.6c2.31-1.07,4.78-1.28,7.52-1.4-3.17,4.21-7.96,6.89-9.13,12.46h-.01Z" fill="#bfe540"/><path d="M376.4,255.51c.94-1.24,2.19-1.73,3.58-1.75c2.45-.04,4.59,1.07,6.76,2.06c2.33,1.06,3.53,3.04,4.29,5.43.23.72.62,1.38.96,2.11-3.29.4-5.62-1.08-7.04-3.71-1.95-3.61-4.67-4.93-8.56-4.14h.01Z" fill="#bfe540"/><path d="M359.71,212.16c.1,4.34-.24,8.51-3.75,11.67-.64-.51-1.46-1.08-2.17-1.77-1.32-1.27-1.42-3.81-.24-5.47.36-.51.76-1.03,1.26-1.36c1.62-1.08,3.29-2.07,4.9-3.07Zm-1.74,3.44c-2.5,2.1-3.3,3.62-3.01,5.07.98-1.65,1.99-3.36,3.01-5.07Z" fill="#bfe540"/><path d="M359.75,230.03c-.17-1.28-.44-2.81-.58-4.37-.18-1.92.49-3.54,2.05-4.63c1.37-.96,2.84-1.78,4.4-2.75-.3,2.1-.5,3.97-.85,5.81-.27,1.45-1.15,2.54-2.28,3.46-.99.8-1.89,1.7-2.74,2.48Z" fill="#bfe540"/><path d="M371.33,237.27c.1-.84.13-1.56.27-2.25.32-1.63,1.37-2.67,2.81-3.18c1.79-.63,3.63-1.11,5.45-1.66.58,2.2-.33,5.41-2.07,6.63-.7.49-1.71.66-2.58.7-1.28.05-2.57-.15-3.88-.24Zm1.82-1.27c.06.1.12.2.18.3c1.95-.21,3.44-1.17,4.54-2.78-.07-.11-.14-.23-.21-.34-1.5.94-3,1.89-4.51,2.83v-.01Z" fill="#bfe540" stroke="#bfe540" stroke-miterlimit="10"/><path d="M327.37,212.6c-.59,7.01-1.42,6.81-6.51,8.34-.72-1.72.48-4.84,2.27-5.79.71-.38,1.5-.6,2.19-1c.68-.4,1.29-.95,2.05-1.54v-.01Z" fill="#bfe540"/><path d="M370.04,228.49c.02-2.55,1.57-3.66,3.68-2.72.93.42,1.79,1.05,2.64,1.65.69.49.73,1.01-.18,1.32-1.63.56-3.26,1.11-4.89,1.66-.52.18-.9.06-1.01-.56-.09-.5-.18-1.01-.25-1.35h.01Z" fill="#bfe540"/><path d="M348.95,206.92c2.86.98,4.55,2.64,5.2,5.3.07.28-.28.89-.58,1.02-1.75.75-3.81-.22-4.27-2.13-.3-1.26-.24-2.62-.35-4.19Z" fill="#bfe540"/><path d="M331.86,203.61c.34,1.71-.74,2.9-1.9,4.03-.5.49-1.04.37-1.23-.33-.78-2.78-1.14-3.99,1.61-5.73c1.04-.66,1.36-.49,1.46.81.03.35.04.71.06,1.23v-.01Z" fill="#bfe540"/><path d="M366.84,224.55c.18-1.02.22-2.11.6-3.04.2-.48,1.12-1.07,1.53-.95c1.06.32,2.02,1,3,1.59.03.02-.18.82-.42.93-1.43.67-2.89,1.24-4.35,1.84-.12-.12-.24-.25-.36-.37Z" fill="#bfe540"/><path d="M385.46,297.61c.03,1.11-.84,2.13-1.85,2.15-1.25.03-1.88-.61-1.92-1.95-.03-.93,1.07-2.08,2.02-2.1.74-.02,1.73,1.04,1.76,1.89l-.01.01Z" fill="#bfe540"/><path d="M362.21,306.94c-1.85.01-3.27-1.68-3.03-3.4.03-.21.61-.56.7-.5c1.25.87,2.47,1.78,3.65,2.75.1.08-.1.82-.33.96-.32.21-.8.15-.99.18v.01Z" fill="#bfe540"/><path d="M366.92,217.2h-5.9c.26-1.24,1.14-1.99,2.2-2.1c1.47-.15,2.48.97,3.7,2.1Z" fill="#bfe540"/><path d="M382.63,309.73c-.77,0-1.87-.96-1.61-1.64.27-.71,1.02-1.23,1.57-1.84.55.54,1.33.99,1.61,1.65.3.71-.8,1.82-1.56,1.83h-.01Z" fill="#bfe540"/><path d="M373.55,312.18c-.19,1.01-1.03,2.01-1.62,1.77-.49-.19-1.22-.98-1.13-1.26.19-.59.78-1.23,1.34-1.42.34-.11.94.58,1.42.91h-.01Z" fill="#bfe540"/><path d="M331.96,306.95c.06-1.28.58-1.86,1.32-1.68.54.13.94.83,1.41,1.27-.49.48-.93,1.21-1.5,1.34-.38.09-.94-.69-1.23-.93Z" fill="#bfe540"/><path d="M371.05,321.97c-.53.32-1.06.91-1.58.89-.38-.01-.74-.8-1.12-1.24.49-.43.92-1.07,1.48-1.21.31-.08.82.65,1.24,1.01c0,.18-.02.37-.02.55Z" fill="#bfe540"/><path d="M351.24,310.76c.47.75,1.01,1.24.95,1.61-.07.43-.68.77-1.06,1.14-.32-.41-.85-.81-.9-1.25-.04-.36.5-.79,1.01-1.51v.01Z" fill="#bfe540"/><path d="M335.44,346.77c.02-1.2,1.09-2.34,2.17-2.31c1.22.03,2.25,1.15,2.2,2.39-.06,1.24-1.06,2.21-2.27,2.18-1.33-.03-2.13-.89-2.1-2.26Z" fill="#bfe540"/><path d="M319.39,214.11c0-1.49-.24-3.03.08-4.45.24-1.1,1-2.24,1.84-3.01c1.47-1.35,3.17-2.42,4.86-3.68-.16,2.3.54,4.63-.36,6.94-.63,1.63-1.69,2.69-3.32,3.18-1.05.32-2.09.68-3.1,1.01v.01Zm2.43-3.13c.09.07.18.14.27.21.61-.86,1.22-1.71,1.84-2.57-.09-.07-.18-.14-.27-.21-.61.86-1.23,1.71-1.84,2.57Z" fill="#bfe540"/><path d="M350.55,214.84c0,2.02.04,3.91,0,5.8-.07,2.68-1.17,4.13-3.63,4.9-.54.17-1.09.29-1.62.44-2.58-6.33.99-8.45,5.26-11.13l-.01-.01Zm-4.77,9.45c.13.06.25.12.38.18c1.16-1.43,1.56-3.22,2.12-4.93-.13-.06-.27-.12-.4-.18-.7,1.65-1.4,3.29-2.1,4.94v-.01Z" fill="#bfe540"/><path d="M362.69,235.49c-.47-3.63.55-6.36,3.95-7.83.71-.31,1.29-.92,1.97-1.42.87,4.7-.96,7.54-5.92,9.26v-.01Z" fill="#bfe540"/><path d="M352.3,224.09c3.19.04,6.03,2.69,6.28,5.77-3.58.82-5.24-.69-6.28-5.77Z" fill="#bfe540"/><path d="M318.26,237.47c.1-3.97,4.32-6.32,8.14-4.46-1.07.45-1.99.86-2.93,1.21-.64.24-1.31.43-1.98.6-1.45.37-2.49,1.29-3.23,2.64v.01Z" fill="#bfe540"/><path d="M385.09,246.61c-.02,2.44-1.65,3.66-3.41,4.76-.11-.09-.21-.18-.32-.26c1.24-1.5,2.48-2.99,3.72-4.49l.01-.01Z" fill="#fff" stroke="#bfe540" stroke-miterlimit="10"/><path d="M353.72,243.75c.93-2.29,2.91-4.07,2.88-6.79c1.19,2.93-.44,4.6-2.88,6.79Z" fill="#bfe540"/><path d="M252.17,262.88c1.77-.17,2.66.83,3.42,2.07-1.06-.64-2.13-1.29-3.42-2.07Z" fill="#bfe540"/><path d="M237.45,251c-1.95-.24-3.43-2.19-3.37-4.08c1.14,1.37,2.26,2.73,3.37,4.08Z" fill="#fff" stroke="#bfe540" stroke-miterlimit="10"/><path d="M272.2,218.99c.6,1.44,1.19,2.88,1.79,4.31-.17.07-.33.15-.5.22-.58-1.44-1.15-2.88-1.73-4.32.15-.07.29-.15.44-.22v.01Z" fill="#fff" stroke="#bfe540" stroke-miterlimit="10"/><path d="M240.67,233.71c2.21,0,3.33,1.34,4.52,2.55-1.73-.22-3.08-1.16-4.52-2.55Z" fill="#bfe540"/><path d="M264.54,220.81c-.97-1.82-1.79-3.37-2.71-5.08c1.53.82,2.85,3.22,2.71,5.08Z" fill="#bfe540"/><path d="M380.44,241.01c-1.22.56-2.37.93-3.34,1.59-1.05.72-1.92,1.72-2.89,2.57-.4.35-.84.68-1.29.96-1.35.87-2.72,1.71-4.25,2.4.52-.58,1.02-1.18,1.55-1.75c1.79-1.88,3.38-3.98,5.77-5.16c1.32-.65,2.78-.93,4.44-.61h.01Z" fill="#bfe540"/><path d="M321.82,210.98c.61-.86,1.23-1.71,1.84-2.57.09.07.18.14.27.21-.61.86-1.22,1.71-1.84,2.57-.09-.07-.18-.14-.27-.21Z" fill="#bfe540"/><path d="M357.97,215.6c-1.01,1.71-2.03,3.42-3.01,5.07-.29-1.45.5-2.97,3.01-5.07Z" fill="#bfe540"/><path d="M345.79,224.29c.7-1.65,1.4-3.29,2.1-4.94.13.06.27.12.4.18-.56,1.71-.95,3.5-2.12,4.93-.13-.06-.25-.12-.38-.18v.01Z" fill="#bfe540"/><path d="M373.15,236c1.5-.94,3-1.89,4.51-2.83.07.11.14.23.21.34-1.1,1.61-2.59,2.57-4.54,2.78-.06-.1-.12-.2-.18-.3v.01Z" fill="#bfe540"/><path d="M234.95,271.9l-3.13-2.83c.08-.1.17-.2.25-.3c1.06.92,2.13,1.83,3.19,2.75-.1.13-.21.26-.31.39v-.01Z" fill="#bfe540"/></g><path d="M383.06,261.08c-1.11-.67-2.22-1.35-3.34-2-1.56-.89-3.25-1.08-5-1.02-.87.03-.96.34-.76,1.2.25,1.05.27,2.18.28,3.28c0,.34-.36.67-.71.99.07-1.71-.56-3.08-1.55-4.26-.37-.44-.95-.84-1.49-.97-3.67-.91-6.68.41-9.24,3.11-1.1,1.16-2.18,2.33-3.22,3.54-.15.17-.12.8.02.89c1.75,1.12,3.55,2.18,5.32,3.26c1.32.8,2.56.56,3.76-.28.57-.4,1.17-.77,1.68-1.24c1.72-1.57,3.68-1.79,5.8-1.21c1.56.43,3.12.87,4.79,1.34-1.33,1.8-2.47,3.95-4.47,5.26-1.82,1.2-3.87,1.25-5.85.4-2.19-.94-4.37-1.92-6.47-3.03-3.59-1.9-7.23-3.6-11.31-4.02-.21-.02-.41-.16-.82-.33.51-.38.86-.76,1.29-.93c3.06-1.24,5.79-3.01,8.27-5.24c1.74-1.56,3.58-3.06,5.87-3.61c1.38-.33,2.87-.44,4.29-.32c2.27.18,4.53.63,6.79.96c2.65.4,4.71,1.72,6.05,4.22l.02.01Zm-7.04,7.96c-3.75-1.02-7.11-.26-9.05,2.18c2.94-.71,5.87-1.42,9.05-2.18Z" fill="#fff"/><path d="M239.81,267.45c2.68-.5,5.01-1.06,7.38-1.3.79-.08,1.7.56,2.48,1c.73.42,1.38.99,2.02,1.56c1.18,1.04,2.52,1.29,3.84.57c2.18-1.2,4.27-2.56,6.57-3.95-2.92-2.33-4.73-5.69-8.33-6.67-1.1-.3-2.24-.58-3.36-.6-2.74-.04-4.35,1.56-4.61,4.38-.03.37-.1.74-.18,1.34-1.14-.89-.74-1.95-.76-2.83-.02-.92.22-1.85.35-2.84-3.07-.5-5.67.7-8.4,1.82.29-.32.55-.68.87-.95c1.69-1.41,3.68-2.06,5.8-2.34c1.7-.23,3.42-.37,5.09-.73c3.14-.67,5.92.17,8.48,1.97c2.06,1.45,3.97,3.11,6.05,4.51c1.43.96,3.04,1.64,4.57,2.46.51.28,1,.61,1.49.92-.03.1-.06.19-.08.29-1.26.22-2.53.42-3.79.66-3.67.7-6.88,2.58-10.17,4.25-1.65.84-3.28,1.71-4.99,2.41-2.78,1.13-5.04.53-7.04-1.8-1.06-1.23-2.03-2.56-3.29-4.15l.01.02Zm12.37,3.71c-2.81-2.57-6.49-3.32-8.65-1.95.1.07.2.17.29.18c2.56.04,4.96.78,7.29,1.82.22.1.53-.01,1.06-.04l.01-.01Z" fill="#fff"/><path d="M265.09,418.14c-.59-1.37-1.12-2.68-1.71-3.97-.42-.91.21-1.04.77-1.33c3.12-1.58,6.25-3.13,9.32-4.8c1.24-.68,2.33-1.64,3.5-2.47.3-.22.62-.42,1.08-.73-.86,1.83-11.56,12.74-12.96,13.29v.01Z" fill="#fff"/><path d="M417.3,304.78c1.89.04,1.95.05,1.55,1.91-.45,2.12-1.03,4.22-1.54,6.33-.17.71-.66.98-1.18.58-.61-.47-1.3-1.08-1.53-1.78-.68-2.07-.1-4.16.28-6.21.05-.3.58-.61.94-.72.46-.14.98-.08,1.48-.1v-.01Z" fill="#fff"/><path d="M400.87,307.26c-1.37.09-2.19-.75-2.51-1.87-.49-1.69-.74-3.46-.99-5.22-.04-.26.43-.7.75-.88.35-.19.82-.17,1.23-.24.64-.1,1.06.12,1.11.84.17,2.21.34,4.43.49,6.64.02.23-.05.46-.08.72v.01Z" fill="#fff"/><path d="M232.9,389.95c2.29-.38,4.58-.77,6.87-1.14c10.99-1.78,21.63-4.69,31.14-10.94c4.05-2.66,7.65-5.95,10.29-10.21.62-1,1.32-1.93,2.18-2.87-.08.33-.13.68-.26.99-2.3,5.46-5.77,9.96-10.48,13.39-8.3,6.03-17.6,9.26-27.61,10.37-3.53.39-7.09.49-10.64.71-.49.03-.98,0-1.48,0c0-.1,0-.2,0-.3h-.01Z" fill="#fff" stroke="#fff"/><path d="M234.51,379.05c1.31-.16,2.64-.24,3.94-.5c10.32-2.02,20-5.53,28-12.97c6.5-6.04,10.34-13.63,12.46-22.28.14-.56.31-1.12.58-1.63-1.16,10.9-5.28,20.32-13.62,27.28-9.1,7.6-19.63,11-31.29,10.4-.02-.1-.05-.2-.07-.31v.01Z" fill="#fff" stroke="#fff"/><path d="M275.07,338.17c-1.35,7.91-4.25,15.09-9.86,20.84-5.26,5.39-11.6,8.85-18.79,10.66c3.03-1.76,6.11-3.42,9.07-5.28c8.03-5.05,13.88-12.11,17.56-21.07.7-1.7,1.17-3.5,1.75-5.26.09.04.18.07.27.11Z" fill="#fff" stroke="#fff"/><path d="M263.54,332.32c-2.21,4.84-5.5,8.8-9.76,11.82-5.7,4.04-12.22,5.7-18.96,6.59c5.35-2.07,10.75-3.99,15.76-6.91c5.07-2.95,9.2-6.98,12.55-11.93.14.14.27.29.41.43Z" fill="#fff" stroke="#fff"/><path d="M269.59,337.69c-1.81,7.48-5.65,13.68-11.29,18.62-4.45,3.9-9.64,6.37-15.3,7.73c5.72-2.83,11.16-6.1,15.84-10.58c4.66-4.46,8.15-9.8,10.76-15.78l-.01.01Z" fill="#fff" stroke="#fff"/><path d="M237.38,354.96c2.5-1.18,4.77-2.25,7.04-3.31c6.61-3.08,12.45-7.26,17.06-13.11c1.08-1.37,1.88-2.97,2.81-4.47.16-.26.33-.5.74-.67-.11.42-.19.85-.34,1.25-2.1,5.46-5.48,9.86-10.2,13.11-4.98,3.42-10.39,5.85-16.24,7.16-.2.05-.42.03-.87.05v-.01Z" fill="#fff" stroke="#fff"/><path d="M261.65,331.44c-5.56,10.51-16.88,15.21-27.65,14.57c5.14-1.27,10.3-2.5,15.14-4.77c4.86-2.29,8.7-6.02,12.51-9.8Z" fill="#fff" stroke="#fff"/><path d="M217.03,329.48c2.53,1.79,2.62,6.02,1.19,7.65-1.24,1.41-3.24,1.88-4.88.95-.53-.3-1.08-.64-1.51-1.07-1.87-1.84-4.11-2.67-6.65-2.79-.67-.03-1.33-.2-1.99-.31.03-.22.02-.33.06-.36c2.31-1.36,6.34-1.77,8.42.27.58.57,1.27,1.02,1.96,1.45c1.78,1.12,3.89,0,3.9-2.18c0-1.23-.32-2.45-.49-3.62l-.01.01Z" fill="#fff" stroke="#fff"/><path d="M259.55,378.07c1.66-1.03,3.33-2.04,4.99-3.09c3.96-2.51,7.86-5.17,10.75-8.98c2.09-2.75,3.72-5.88,5.55-8.84.24-.38.41-.81.74-1.48-.27,7.97-12.67,20.58-22.02,22.39h-.01Z" fill="#fff" stroke="#fff"/><path d="M315.17,317.79c-3.16-8.8-7.62-17.27-6.42-27.2.33,2.24.49,4.52,1.04,6.7.96,3.74,2.17,7.4,3.26,11.11.8,2.72,1.57,5.45,2.33,8.18.1.37.06.78.09,1.17-.1.02-.2.03-.3.05v-.01Z" fill="#fff"/><path d="M241.52,340.02c6.48-3.58,12.3-8.03,17.22-14.11-.79,4.4-12.02,13.5-17.22,14.11Z" fill="#fff" stroke="#fff"/><path d="M311.37,272.71c-.75-3.15,4.21-11.7,6.86-12.44-2.49,4.12-5.81,7.61-6.86,12.44Z" fill="#fff"/><path d="M350.72,285.33c1.23-1.83,4.94-2.98,6.82-2.11-2.27.7-4.55,1.41-6.82,2.11Z" fill="#fff"/><path d="M261.58,282.83c2.4.28,4.7.83,6.66,2.35-.05.15-.11.31-.16.46l-6.62-2.45c.04-.12.08-.24.12-.36Z" fill="#fff"/><path d="M340.29,231.9c-1.54-1.75-1.88-3.94-2.19-6.15c1.32,1.82,1.83,3.96,2.19,6.15Z" fill="#fff"/><path d="M279.38,232.19c.6-2.04,1.2-4.07,1.85-6.28.62,1.22-.17,4.37-1.44,6.4-.14-.04-.27-.08-.41-.12Z" fill="#fff"/><path d="M349.26,231.98v4.01h-.28v-4.01h.28Z" fill="#fff"/><path d="M270.51,235.61c.08-1.18.15-2.25.23-3.56.66,1.36.55,2.84-.23,3.56Z" fill="#fff"/><path d="M374.93,391.86c-.46,1.38-.85,2.78-1.38,4.13-.82,2.08-2.14,3.82-4.11,4.77-3.21,1.55-6.49,2.97-9.78,4.33-2.73,1.13-5.51,2.11-8.28,3.13-.41.15-.84.22-1.26.32-.05-.12-.1-.24-.15-.36c1.03-.59,2.03-1.25,3.1-1.76c5.13-2.45,10.25-4.92,15.43-7.25c2.36-1.06,3.96-2.74,5.03-5.09.37-.81.76-1.6,1.14-2.4.09.06.18.12.27.17l-.01.01Z" fill="#fff" stroke="#fff"/><path d="M365.52,395.33c-.49.37-.92.87-1.47,1.07-2.54.97-5.08,1.94-7.66,2.77-4.16,1.32-8.35,2.53-12.52,3.78-.14.04-.28.05-.46-.05c6.95-3.7,14.28-6.25,21.89-7.98.08.14.15.27.23.41h-.01Z" fill="#fff" stroke="#fff"/><path d="M376.02,269.04c-3.18.77-6.12,1.48-9.05,2.18c1.94-2.44,5.3-3.21,9.05-2.18Z" fill="#fff"/><path d="M252.18,271.16c-.53.03-.84.14-1.06.04-2.33-1.03-4.73-1.77-7.29-1.82-.09,0-.19-.11-.29-.18c2.16-1.37,5.84-.62,8.65,1.95l-.01.01Z" fill="#fff"/>
<script><![CDATA[
!function(t,n){"object"==typeof exports&&"undefined"!=typeof module?module.exports=n():"function"==typeof __SVGATOR_DEFINE__&&__SVGATOR_DEFINE__.amd?__SVGATOR_DEFINE__(n):((t="undefined"!=typeof globalThis?globalThis:t||self).__SVGATOR_PLAYER__=t.__SVGATOR_PLAYER__||{},t.__SVGATOR_PLAYER__["5c7f360c"]=n())}(this,(function(){"use strict";function t(t,n){var e=Object.keys(t);if(Object.getOwnPropertySymbols){var r=Object.getOwnPropertySymbols(t);n&&(r=r.filter((function(n){return Object.getOwnPropertyDescriptor(t,n).enumerable}))),e.push.apply(e,r)}return e}function n(n){for(var e=1;e<arguments.length;e++){var r=null!=arguments[e]?arguments[e]:{};e%2?t(Object(r),!0).forEach((function(t){o(n,t,r[t])})):Object.getOwnPropertyDescriptors?Object.defineProperties(n,Object.getOwnPropertyDescriptors(r)):t(Object(r)).forEach((function(t){Object.defineProperty(n,t,Object.getOwnPropertyDescriptor(r,t))}))}return n}function e(t){return(e="function"==typeof Symbol&&"symbol"==typeof Symbol.iterator?function(t){return typeof t}:function(t){return t&&"function"==typeof Symbol&&t.constructor===Symbol&&t!==Symbol.prototype?"symbol":typeof t})(t)}function r(t,n){if(!(t instanceof n))throw new TypeError("Cannot call a class as a function")}function i(t,n){for(var e=0;e<n.length;e++){var r=n[e];r.enumerable=r.enumerable||!1,r.configurable=!0,"value"in r&&(r.writable=!0),Object.defineProperty(t,r.key,r)}}function u(t,n,e){return n&&i(t.prototype,n),e&&i(t,e),t}function o(t,n,e){return n in t?Object.defineProperty(t,n,{value:e,enumerable:!0,configurable:!0,writable:!0}):t[n]=e,t}function a(t){return(a=Object.setPrototypeOf?Object.getPrototypeOf:function(t){return t.__proto__||Object.getPrototypeOf(t)})(t)}function l(t,n){return(l=Object.setPrototypeOf||function(t,n){return t.__proto__=n,t})(t,n)}function s(){if("undefined"==typeof Reflect||!Reflect.construct)return!1;if(Reflect.construct.sham)return!1;if("function"==typeof Proxy)return!0;try{return Boolean.prototype.valueOf.call(Reflect.construct(Boolean,[],(function(){}))),!0}catch(t){return!1}}function f(t,n,e){return(f=s()?Reflect.construct:function(t,n,e){var r=[null];r.push.apply(r,n);var i=new(Function.bind.apply(t,r));return e&&l(i,e.prototype),i}).apply(null,arguments)}function c(t,n){if(n&&("object"==typeof n||"function"==typeof n))return n;if(void 0!==n)throw new TypeError("Derived constructors may only return object or undefined");return function(t){if(void 0===t)throw new ReferenceError("this hasn't been initialised - super() hasn't been called");return t}(t)}function h(t,n,e){return(h="undefined"!=typeof Reflect&&Reflect.get?Reflect.get:function(t,n,e){var r=function(t,n){for(;!Object.prototype.hasOwnProperty.call(t,n)&&null!==(t=a(t)););return t}(t,n);if(r){var i=Object.getOwnPropertyDescriptor(r,n);return i.get?i.get.call(e):i.value}})(t,n,e||t)}function v(t){return function(t){if(Array.isArray(t))return y(t)}(t)||function(t){if("undefined"!=typeof Symbol&&null!=t[Symbol.iterator]||null!=t["@@iterator"])return Array.from(t)}(t)||function(t,n){if(!t)return;if("string"==typeof t)return y(t,n);var e=Object.prototype.toString.call(t).slice(8,-1);"Object"===e&&t.constructor&&(e=t.constructor.name);if("Map"===e||"Set"===e)return Array.from(t);if("Arguments"===e||/^(?:Ui|I)nt(?:8|16|32)(?:Clamped)?Array$/.test(e))return y(t,n)}(t)||function(){throw new TypeError("Invalid attempt to spread non-iterable instance.\nIn order to be iterable, non-array objects must have a [Symbol.iterator]() method.")}()}function y(t,n){(null==n||n>t.length)&&(n=t.length);for(var e=0,r=new Array(n);e<n;e++)r[e]=t[e];return r}function g(t,n,e){if(Number.isInteger(t))return t;var r=Math.pow(10,n);return Math[e]((+t+Number.EPSILON)*r)/r}Number.isInteger||(Number.isInteger=function(t){return"number"==typeof t&&isFinite(t)&&Math.floor(t)===t}),Number.EPSILON||(Number.EPSILON=2220446049250313e-31);var p=d(Math.pow(10,-6));function d(t){var n=arguments.length>1&&void 0!==arguments[1]?arguments[1]:6;return g(t,n,"round")}function m(t,n){var e=arguments.length>2&&void 0!==arguments[2]?arguments[2]:p;return Math.abs(t-n)<e}d(Math.pow(10,-2)),d(Math.pow(10,-4));var b=Math.PI/180;function w(t){return t*b}function x(t){return t/b}function _(t){return t}function A(t,n,e){var r=1-e;return 3*e*r*(t*r+n*e)+e*e*e}function k(){var t=arguments.length>0&&void 0!==arguments[0]?arguments[0]:0,n=arguments.length>1&&void 0!==arguments[1]?arguments[1]:0,e=arguments.length>2&&void 0!==arguments[2]?arguments[2]:1,r=arguments.length>3&&void 0!==arguments[3]?arguments[3]:1;return t<0||t>1||e<0||e>1?null:m(t,n)&&m(e,r)?_:function(i){if(i<=0)return t>0?i*n/t:0===n&&e>0?i*r/e:0;if(i>=1)return e<1?1+(i-1)*(r-1)/(e-1):1===e&&t<1?1+(i-1)*(n-1)/(t-1):1;for(var u,o=0,a=1;o<a;){var l=A(t,e,u=(o+a)/2);if(m(i,l))break;l<i?o=u:a=u}return A(n,r,u)}}function S(){return 1}function O(t){return 1===t?1:0}function j(){var t=arguments.length>0&&void 0!==arguments[0]?arguments[0]:1,n=arguments.length>1&&void 0!==arguments[1]?arguments[1]:0;if(1===t){if(0===n)return O;if(1===n)return S}var e=1/t;return function(t){return t>=1?1:(t+=n*e)-t%e}}var M=Math.sin,E=Math.cos,P=Math.acos,I=Math.asin,R=Math.tan,F=Math.atan2,N=Math.sqrt,T=function(){function t(){var n=arguments.length>0&&void 0!==arguments[0]?arguments[0]:1,e=arguments.length>1&&void 0!==arguments[1]?arguments[1]:0,i=arguments.length>2&&void 0!==arguments[2]?arguments[2]:0,u=arguments.length>3&&void 0!==arguments[3]?arguments[3]:1,o=arguments.length>4&&void 0!==arguments[4]?arguments[4]:0,a=arguments.length>5&&void 0!==arguments[5]?arguments[5]:0;r(this,t),this.m=[n,e,i,u,o,a],this.i=null,this.w=null,this.s=null}return u(t,[{key:"determinant",get:function(){var t=this.m;return t[0]*t[3]-t[1]*t[2]}},{key:"isIdentity",get:function(){if(null===this.i){var t=this.m;this.i=1===t[0]&&0===t[1]&&0===t[2]&&1===t[3]&&0===t[4]&&0===t[5]}return this.i}},{key:"point",value:function(t,n){var e=this.m;return{x:e[0]*t+e[2]*n+e[4],y:e[1]*t+e[3]*n+e[5]}}},{key:"translateSelf",value:function(){var t=arguments.length>0&&void 0!==arguments[0]?arguments[0]:0,n=arguments.length>1&&void 0!==arguments[1]?arguments[1]:0;if(!t&&!n)return this;var e=this.m;return e[4]+=e[0]*t+e[2]*n,e[5]+=e[1]*t+e[3]*n,this.w=this.s=this.i=null,this}},{key:"rotateSelf",value:function(){var t=arguments.length>0&&void 0!==arguments[0]?arguments[0]:0;if(t%=360){t=w(t);var n=M(t),e=E(t),r=this.m,i=r[0],u=r[1];r[0]=i*e+r[2]*n,r[1]=u*e+r[3]*n,r[2]=r[2]*e-i*n,r[3]=r[3]*e-u*n,this.w=this.s=this.i=null}return this}},{key:"scaleSelf",value:function(){var t=arguments.length>0&&void 0!==arguments[0]?arguments[0]:1,n=arguments.length>1&&void 0!==arguments[1]?arguments[1]:1;if(1!==t||1!==n){var e=this.m;e[0]*=t,e[1]*=t,e[2]*=n,e[3]*=n,this.w=this.s=this.i=null}return this}},{key:"skewSelf",value:function(t,n){if(n%=360,(t%=360)||n){var e=this.m,r=e[0],i=e[1],u=e[2],o=e[3];t&&(t=R(w(t)),e[2]+=r*t,e[3]+=i*t),n&&(n=R(w(n)),e[0]+=u*n,e[1]+=o*n),this.w=this.s=this.i=null}return this}},{key:"resetSelf",value:function(){var t=arguments.length>0&&void 0!==arguments[0]?arguments[0]:1,n=arguments.length>1&&void 0!==arguments[1]?arguments[1]:0,e=arguments.length>2&&void 0!==arguments[2]?arguments[2]:0,r=arguments.length>3&&void 0!==arguments[3]?arguments[3]:1,i=arguments.length>4&&void 0!==arguments[4]?arguments[4]:0,u=arguments.length>5&&void 0!==arguments[5]?arguments[5]:0,o=this.m;return o[0]=t,o[1]=n,o[2]=e,o[3]=r,o[4]=i,o[5]=u,this.w=this.s=this.i=null,this}},{key:"recomposeSelf",value:function(){var t=arguments.length>0&&void 0!==arguments[0]?arguments[0]:null,n=arguments.length>1&&void 0!==arguments[1]?arguments[1]:null,e=arguments.length>2&&void 0!==arguments[2]?arguments[2]:null,r=arguments.length>3&&void 0!==arguments[3]?arguments[3]:null,i=arguments.length>4&&void 0!==arguments[4]?arguments[4]:null;return this.isIdentity||this.resetSelf(),t&&(t.x||t.y)&&this.translateSelf(t.x,t.y),n&&this.rotateSelf(n),e&&(e.x&&this.skewSelf(e.x,0),e.y&&this.skewSelf(0,e.y)),!r||1===r.x&&1===r.y||this.scaleSelf(r.x,r.y),i&&(i.x||i.y)&&this.translateSelf(i.x,i.y),this}},{key:"decompose",value:function(){var t=arguments.length>0&&void 0!==arguments[0]?arguments[0]:0,n=arguments.length>1&&void 0!==arguments[1]?arguments[1]:0,e=this.m,r=e[0]*e[0]+e[1]*e[1],i=[[e[0],e[1]],[e[2],e[3]]],u=N(r);if(0===u)return{origin:{x:d(e[4]),y:d(e[5])},translate:{x:d(t),y:d(n)},scale:{x:0,y:0},skew:{x:0,y:0},rotate:0};i[0][0]/=u,i[0][1]/=u;var o=e[0]*e[3]-e[1]*e[2]<0;o&&(u=-u);var a=i[0][0]*i[1][0]+i[0][1]*i[1][1];i[1][0]-=i[0][0]*a,i[1][1]-=i[0][1]*a;var l,s=N(i[1][0]*i[1][0]+i[1][1]*i[1][1]);return 0===s?{origin:{x:d(e[4]),y:d(e[5])},translate:{x:d(t),y:d(n)},scale:{x:d(u),y:0},skew:{x:0,y:0},rotate:0}:(i[1][0]/=s,i[1][1]/=s,a/=s,i[1][1]<0?(l=x(P(i[1][1])),i[0][1]<0&&(l=360-l)):l=x(I(i[0][1])),o&&(l=-l),a=x(F(a,N(i[0][0]*i[0][0]+i[0][1]*i[0][1]))),o&&(a=-a),{origin:{x:d(e[4]),y:d(e[5])},translate:{x:d(t),y:d(n)},scale:{x:d(u),y:d(s)},skew:{x:d(a),y:0},rotate:d(l)})}},{key:"multiply",value:function(t){return this.clone().multiplySelf(t)}},{key:"preMultiply",value:function(t){return t.multiply(this)}},{key:"multiplySelf",value:function(t){var n=q(this.m,t.m),e=n.a,r=n.b,i=n.c,u=n.d,o=n.tx,a=n.ty;return this.resetSelf(e,r,i,u,o,a),this}},{key:"preMultiplySelf",value:function(t){var n=q(t.m,this.m),e=n.a,r=n.b,i=n.c,u=n.d,o=n.tx,a=n.ty;return this.resetSelf(e,r,i,u,o,a),this}},{key:"clone",value:function(){var t=this.m;return new this.constructor(t[0],t[1],t[2],t[3],t[4],t[5])}},{key:"toString",value:function(){var t=arguments.length>0&&void 0!==arguments[0]?arguments[0]:" ";if(null===this.s){var n=this.m.map((function(t){return d(t)}));1===n[0]&&0===n[1]&&0===n[2]&&1===n[3]?this.s="translate("+n[4]+t+n[5]+")":this.s="matrix("+n.join(t)+")"}return this.s}}],[{key:"create",value:function(t){return t?Array.isArray(t)?f(this,v(t)):t instanceof this?t.clone():(new this).recomposeSelf(t.origin,t.rotate,t.skew,t.scale,t.translate):new this}}]),t}();function q(t,n){return{a:t[0]*n[0]+t[2]*n[1],b:t[1]*n[0]+t[3]*n[1],c:t[0]*n[2]+t[2]*n[3],d:t[1]*n[2]+t[3]*n[3],tx:t[0]*n[4]+t[2]*n[5]+t[4],ty:t[1]*n[4]+t[3]*n[5]+t[5]}}function B(t,n,e){return t>=.5?e:n}function D(t,n,e){return 0===t||n===e?n:t*(e-n)+n}function L(t,n,e){var r=D(t,n,e);return r<=0?0:r}function C(t,n,e){var r=D(t,n,e);return r<=0?0:r>=1?1:r}function V(t,n,e){return 0===t?n:1===t?e:{x:D(t,n.x,e.x),y:D(t,n.y,e.y)}}function G(t,n,e){var r=function(t,n,e){return Math.round(D(t,n,e))}(t,n,e);return r<=0?0:r>=255?255:r}function z(t,n,e){return 0===t?n:1===t?e:{r:G(t,n.r,e.r),g:G(t,n.g,e.g),b:G(t,n.b,e.b),a:D(t,null==n.a?1:n.a,null==e.a?1:e.a)}}function Y(t,n){for(var e=[],r=0;r<t;r++)e.push(n);return e}function $(t,n){if(--n<=0)return t;var e=(t=Object.assign([],t)).length;do{for(var r=0;r<e;r++)t.push(t[r])}while(--n>0);return t}var U,Q=function(){function t(n){r(this,t),this.list=n,this.length=n.length}return u(t,[{key:"setAttribute",value:function(t,n){for(var e=this.list,r=0;r<this.length;r++)e[r].setAttribute(t,n)}},{key:"removeAttribute",value:function(t){for(var n=this.list,e=0;e<this.length;e++)n[e].removeAttribute(t)}},{key:"style",value:function(t,n){for(var e=this.list,r=0;r<this.length;r++)e[r].style[t]=n}}]),t}(),H=/-./g,J=function(t,n){return n.toUpperCase()};function Z(t){return"function"==typeof t?t:B}function K(t){return t?"function"==typeof t?t:Array.isArray(t)?function(t){var n=arguments.length>1&&void 0!==arguments[1]?arguments[1]:_;if(!Array.isArray(t))return n;switch(t.length){case 1:return j(t[0])||n;case 2:return j(t[0],t[1])||n;case 4:return k(t[0],t[1],t[2],t[3])||n}return n}(t,null):function(t,n){var e=arguments.length>2&&void 0!==arguments[2]?arguments[2]:_;switch(t){case"linear":return _;case"steps":return j(n.steps||1,n.jump||0)||e;case"bezier":case"cubic-bezier":return k(n.x1||0,n.y1||0,n.x2||0,n.y2||0)||e}return e}(t.type,t.value,null):null}function W(t,n,e){var r=arguments.length>3&&void 0!==arguments[3]&&arguments[3],i=n.length-1;if(t<=n[0].t)return r?[0,0,n[0].v]:n[0].v;if(t>=n[i].t)return r?[i,1,n[i].v]:n[i].v;var u,o=n[0],a=null;for(u=1;u<=i;u++){if(!(t>n[u].t)){a=n[u];break}o=n[u]}return null==a?r?[i,1,n[i].v]:n[i].v:o.t===a.t?r?[u,1,a.v]:a.v:(t=(t-o.t)/(a.t-o.t),o.e&&(t=o.e(t)),r?[u,t,e(t,o.v,a.v)]:e(t,o.v,a.v))}function X(t,n){var e=arguments.length>2&&void 0!==arguments[2]?arguments[2]:null;return t&&t.length?"function"!=typeof n?null:("function"!=typeof e&&(e=null),function(r){var i=W(r,t,n);return null!=i&&e&&(i=e(i)),i}):null}function tt(t,n){return t.t-n.t}function nt(t,n,r,i,u){var o,a="@"===r[0],l="#"===r[0],s=U[r],f=B;switch(a?(o=r.substr(1),r=o.replace(H,J)):l&&(r=r.substr(1)),e(s)){case"function":if(f=s(i,u,W,K,r,a,n,t),l)return f;break;case"string":f=X(i,Z(s));break;case"object":if((f=X(i,Z(s.i),s.f))&&"function"==typeof s.u)return s.u(n,f,r,a,t)}return f?function(t,n,e){if(arguments.length>3&&void 0!==arguments[3]&&arguments[3])return t instanceof Q?function(r){return t.style(n,e(r))}:function(r){return t.style[n]=e(r)};if(Array.isArray(n)){var r=n.length;return function(i){var u=e(i);if(null==u)for(var o=0;o<r;o++)t[o].removeAttribute(n);else for(var a=0;a<r;a++)t[a].setAttribute(n,u)}}return function(r){var i=e(r);null==i?t.removeAttribute(n):t.setAttribute(n,i)}}(n,r,f,a):null}function et(t,n,r,i){if(!i||"object"!==e(i))return null;var u=null,o=null;return Array.isArray(i)?o=function(t){if(!t||!t.length)return null;for(var n=0;n<t.length;n++)t[n].e&&(t[n].e=K(t[n].e));return t.sort(tt)}(i):(o=i.keys,u=i.data||null),o?nt(t,n,r,o,u):null}function rt(t,n,e){if(!e)return null;var r=[];for(var i in e)if(e.hasOwnProperty(i)){var u=et(t,n,i,e[i]);u&&r.push(u)}return r.length?r:null}function it(t,n){if(!n.settings.duration||n.settings.duration<0)return null;var e,r,i,u,o,a=function(t,n){if(!n)return null;var e=[];if(Array.isArray(n))for(var r=n.length,i=0;i<r;i++){var u=n[i];if(2===u.length){var o=null;if("string"==typeof u[0])o=t.getElementById(u[0]);else if(Array.isArray(u[0])){o=[];for(var a=0;a<u[0].length;a++)if("string"==typeof u[0][a]){var l=t.getElementById(u[0][a]);l&&o.push(l)}o=o.length?1===o.length?o[0]:new Q(o):null}if(o){var s=rt(t,o,u[1]);s&&(e=e.concat(s))}}}else for(var f in n)if(n.hasOwnProperty(f)){var c=t.getElementById(f);if(c){var h=rt(t,c,n[f]);h&&(e=e.concat(h))}}return e.length?e:null}(t,n.elements);return a?(e=a,r=n.settings,i=r.duration,u=e.length,o=null,function(t,n){var a=r.iterations||1/0,l=(r.alternate&&a%2==0)^r.direction>0?i:0,s=t%i,f=1+(t-s)/i;n*=r.direction,r.alternate&&f%2==0&&(n=-n);var c=!1;if(f>a)s=l,c=!0,-1===r.fill&&(s=r.direction>0?0:i);else if(n<0&&(s=i-s),s===o)return!1;o=s;for(var h=0;h<u;h++)e[h](s);return c}):null}function ut(t,n){for(var e=n.querySelectorAll("svg"),r=0;r<e.length;r++)if(e[r].id===t.root&&!e[r].svgatorAnimation)return e[r].svgatorAnimation=!0,e[r];return null}function ot(t){var n=function(t){return t.shadowRoot};return document?Array.from(t.querySelectorAll(":not("+["a","area","audio","br","canvas","circle","datalist","embed","g","head","hr","iframe","img","input","link","object","path","polygon","rect","script","source","style","svg","title","track","video"].join()+")")).filter(n).map(n):[]}function at(t){var n=arguments.length>1&&void 0!==arguments[1]?arguments[1]:document,e=arguments.length>2&&void 0!==arguments[2]?arguments[2]:0,r=ut(t,n);if(r)return r;if(e>=20)return null;for(var i=ot(n),u=0;u<i.length;u++){var o=at(t,i[u],e+1);if(o)return o}return null}function lt(t,n){if(U=n,!t||!t.root||!Array.isArray(t.animations))return null;var e=at(t);if(!e)return null;var r=t.animations.map((function(t){return it(e,t)})).filter((function(t){return!!t}));return r.length?{svg:e,animations:r,animationSettings:t.animationSettings,options:t.options||void 0}:null}function st(t){var n=arguments.length>1&&void 0!==arguments[1]?arguments[1]:null,e=arguments.length>2&&void 0!==arguments[2]?arguments[2]:Number,r=arguments.length>3&&void 0!==arguments[3]?arguments[3]:"undefined"!=typeof BigInt&&BigInt,i="0x"+(t.replace(/[^0-9a-fA-F]+/g,"")||27);return n&&r&&e.isSafeInteger&&!e.isSafeInteger(+i)?e(r(i))%n+n:+i}function ft(t,n,e){return!t||!e||n>t.length?t:t.substring(0,n)+ft(t.substring(n+1),e,e)}function ct(t){var n=arguments.length>1&&void 0!==arguments[1]?arguments[1]:27;return!t||t%n?t%n:[0,1].includes(n)?n:ct(t/n,n)}function ht(t,n,e){if(t&&t.length){var r=st(e),i=ct(r)+5,u=ft(t,ct(r,5),i);return u=u.replace(/\x7c$/g,"==").replace(/\x2f$/g,"="),u=function(t,n,e){var r=+("0x"+t.substring(0,4));t=t.substring(4);for(var i=st(n,r)%r+e%27,u=[],o=0;o<t.length;o+=2)if("|"!==t[o]){var a=+("0x"+t[o]+t[o+1])-i;u.push(a)}else{var l=+("0x"+t.substring(o+1,o+1+4))-i;o+=3,u.push(l)}return String.fromCharCode.apply(String,u)}(u=(u=atob(u)).replace(/[\x41-\x5A]/g,""),n,r),u=JSON.parse(u)}}var vt=[{key:"alternate",def:!1},{key:"fill",def:1},{key:"iterations",def:0},{key:"direction",def:1},{key:"speed",def:1},{key:"fps",def:100}],yt=function(){function t(n,e){var i=this,u=arguments.length>2&&void 0!==arguments[2]?arguments[2]:null;r(this,t),this._id=0,this._running=!1,this._rollingBack=!1,this._animations=n,this._settings=e,(!u||u<"2022-05-02")&&delete this._settings.speed,vt.forEach((function(t){i._settings[t.key]=i._settings[t.key]||t.def})),this.duration=e.duration,this.offset=e.offset||0,this.rollbackStartOffset=0}return u(t,[{key:"alternate",get:function(){return this._settings.alternate}},{key:"fill",get:function(){return this._settings.fill}},{key:"iterations",get:function(){return this._settings.iterations}},{key:"direction",get:function(){return this._settings.direction}},{key:"speed",get:function(){return this._settings.speed}},{key:"fps",get:function(){return this._settings.fps}},{key:"maxFiniteDuration",get:function(){return this.iterations>0?this.iterations*this.duration:this.duration}},{key:"_apply",value:function(t){for(var n=arguments.length>1&&void 0!==arguments[1]?arguments[1]:{},e=this._animations,r=e.length,i=0,u=0;u<r;u++)n[u]?i++:(n[u]=e[u](t,1),n[u]&&i++);return i}},{key:"_rollback",value:function(t){var n=this,e=1/0,r=null;this.rollbackStartOffset=t,this._rollingBack=!0,this._running=!0;this._id=window.requestAnimationFrame((function i(u){if(n._rollingBack){null==r&&(r=u);var o=Math.round(t-(u-r)*n.speed);if(o>n.duration&&e!==1/0){var a=!!n.alternate&&o/n.duration%2>1,l=o%n.duration;o=(l+=a?n.duration:0)||n.duration}var s=(n.fps?1e3/n.fps:0)*n.speed,f=Math.max(0,o);f<=e-s&&(n.offset=f,e=f,n._apply(f));var c=n.iterations>0&&-1===n.fill&&o>=n.maxFiniteDuration;(o<=0||n.offset<o||c)&&n.stop(),n._id=window.requestAnimationFrame(i)}}))}},{key:"_start",value:function(){var t=this,n=arguments.length>0&&void 0!==arguments[0]?arguments[0]:0,e=-1/0,r=null,i={};this._running=!0;var u=function u(o){null==r&&(r=o);var a=Math.round((o-r)*t.speed+n),l=(t.fps?1e3/t.fps:0)*t.speed;if(a>=e+l&&!t._rollingBack&&(t.offset=a,e=a,t._apply(a,i)===t._animations.length))return void t.pause(!0);t._id=window.requestAnimationFrame(u)};this._id=window.requestAnimationFrame(u)}},{key:"_pause",value:function(){this._id&&window.cancelAnimationFrame(this._id),this._running=!1}},{key:"play",value:function(){if(!this._running)return this._rollingBack?this._rollback(this.offset):this._start(this.offset)}},{key:"stop",value:function(){this._pause(),this.offset=0,this.rollbackStartOffset=0,this._rollingBack=!1,this._apply(0)}},{key:"reachedToEnd",value:function(){return this.iterations>0&&this.offset>=this.iterations*this.duration}},{key:"restart",value:function(){var t=arguments.length>0&&void 0!==arguments[0]&&arguments[0];this.stop(t),this.play(t)}},{key:"pause",value:function(){this._pause()}},{key:"reverse",value:function(){this.direction=-this.direction}}],[{key:"build",value:function(t,n){delete t.animationSettings,t.options=ht(t.options,t.root,"5c7f360c"),t.animations.map((function(n){n.settings=ht(n.s,t.root,"5c7f360c"),delete n.s,t.animationSettings||(t.animationSettings=n.settings)}));var e=t.version;if(!(t=lt(t,n)))return null;var r=t.options||{},i=new this(t.animations,t.animationSettings,e);return{el:t.svg,options:r,player:i}}},{key:"push",value:function(t){return this.build(t)}},{key:"init",value:function(){var t=this,n=window.__SVGATOR_PLAYER__&&window.__SVGATOR_PLAYER__["5c7f360c"];Array.isArray(n)&&n.splice(0).forEach((function(n){return t.build(n)}))}}]),t}();function gt(t){return d(t)+""}function pt(t){var n=arguments.length>1&&void 0!==arguments[1]?arguments[1]:" ";return t&&t.length?t.map(gt).join(n):""}function dt(t){return t?null==t.a||t.a>=1?function(t){if(!t)return"transparent";var n=function(t){return parseInt(t).toString(16).padStart(2,"0")};return function(t){for(var n=[],e="#"===t[0]?n.push("#"):0;e<t.length;e+=2){if(t[e]!==t[e+1])return t;n.push(t[e])}return n.join("")}("#"+n(t.r)+n(t.g)+n(t.b)+(null==t.a||t.a>=1?"":n(255*t.a)))}(t):"rgba("+t.r+","+t.g+","+t.b+","+t.a+")":"transparent"}function mt(t){return t?"url(#"+t+")":"none"}!function(){for(var t=0,n=["ms","moz","webkit","o"],e=0;e<n.length&&!window.requestAnimationFrame;++e)window.requestAnimationFrame=window[n[e]+"RequestAnimationFrame"],window.cancelAnimationFrame=window[n[e]+"CancelAnimationFrame"]||window[n[e]+"CancelRequestAnimationFrame"];window.requestAnimationFrame||(window.requestAnimationFrame=function(n){var e=Date.now(),r=Math.max(0,16-(e-t)),i=window.setTimeout((function(){n(e+r)}),r);return t=e+r,i},window.cancelAnimationFrame=window.clearTimeout)}();var bt={f:null,i:function(t,n,e){return 0===t?n:1===t?e:{x:L(t,n.x,e.x),y:L(t,n.y,e.y)}},u:function(t,n){return function(e){var r=n(e);t.setAttribute("rx",gt(r.x)),t.setAttribute("ry",gt(r.y))}}},wt={f:null,i:function(t,n,e){return 0===t?n:1===t?e:{width:L(t,n.width,e.width),height:L(t,n.height,e.height)}},u:function(t,n){return function(e){var r=n(e);t.setAttribute("width",gt(r.width)),t.setAttribute("height",gt(r.height))}}};Object.freeze({M:2,L:2,Z:0,H:1,V:1,C:6,Q:4,T:2,S:4,A:7});var xt={},_t=null;function At(t){var n=function(){if(_t)return _t;if("object"!==("undefined"==typeof document?"undefined":e(document))||!document.createElementNS)return{};var t=document.createElementNS("http://www.w3.org/2000/svg","svg");return t&&t.style?(t.style.position="absolute",t.style.opacity="0.01",t.style.zIndex="-9999",t.style.left="-9999px",t.style.width="1px",t.style.height="1px",_t={svg:t}):{}}().svg;if(!n)return function(t){return null};var r=document.createElementNS(n.namespaceURI,"path");r.setAttributeNS(null,"d",t),r.setAttributeNS(null,"fill","none"),r.setAttributeNS(null,"stroke","none"),n.appendChild(r);var i=r.getTotalLength();return function(t){var n=r.getPointAtLength(i*t);return{x:n.x,y:n.y}}}function kt(t){return xt[t]?xt[t]:xt[t]=At(t)}function St(t,n,e,r){if(!t||!r)return!1;var i=["M",t.x,t.y];if(n&&e&&(i.push("C"),i.push(n.x),i.push(n.y),i.push(e.x),i.push(e.y)),n?!e:e){var u=n||e;i.push("Q"),i.push(u.x),i.push(u.y)}return n||e||i.push("L"),i.push(r.x),i.push(r.y),i.join(" ")}function Ot(t,n,e,r){var i=arguments.length>4&&void 0!==arguments[4]?arguments[4]:1,u=St(t,n,e,r),o=kt(u);try{return o(i)}catch(t){return null}}function jt(t,n,e){return t+(n-t)*e}function Mt(t,n,e){var r=arguments.length>3&&void 0!==arguments[3]&&arguments[3],i={x:jt(t.x,n.x,e),y:jt(t.y,n.y,e)};return r&&(i.a=Et(t,n)),i}function Et(t,n){return Math.atan2(n.y-t.y,n.x-t.x)}function Pt(t,n,e,r){var i=1-r;return i*i*t+2*i*r*n+r*r*e}function It(t,n,e,r){return 2*(1-r)*(n-t)+2*r*(e-n)}function Rt(t,n,e,r){var i=arguments.length>4&&void 0!==arguments[4]&&arguments[4],u=Ot(t,n,null,e,r);return u||(u={x:Pt(t.x,n.x,e.x,r),y:Pt(t.y,n.y,e.y,r)}),i&&(u.a=Ft(t,n,e,r)),u}function Ft(t,n,e,r){return Math.atan2(It(t.y,n.y,e.y,r),It(t.x,n.x,e.x,r))}function Nt(t,n,e,r,i){var u=i*i;return i*u*(r-t+3*(n-e))+3*u*(t+e-2*n)+3*i*(n-t)+t}function Tt(t,n,e,r,i){var u=1-i;return 3*(u*u*(n-t)+2*u*i*(e-n)+i*i*(r-e))}function qt(t,n,e,r,i){var u=arguments.length>5&&void 0!==arguments[5]&&arguments[5],o=Ot(t,n,e,r,i);return o||(o={x:Nt(t.x,n.x,e.x,r.x,i),y:Nt(t.y,n.y,e.y,r.y,i)}),u&&(o.a=Bt(t,n,e,r,i)),o}function Bt(t,n,e,r,i){return Math.atan2(Tt(t.y,n.y,e.y,r.y,i),Tt(t.x,n.x,e.x,r.x,i))}function Dt(t,n,e){var r=arguments.length>3&&void 0!==arguments[3]&&arguments[3];if(Ct(n)){if(Vt(e))return Rt(n,e.start,e,t,r)}else if(Ct(e)){if(Gt(n))return Rt(n,n.end,e,t,r)}else{if(Gt(n))return Vt(e)?qt(n,n.end,e.start,e,t,r):Rt(n,n.end,e,t,r);if(Vt(e))return Rt(n,e.start,e,t,r)}return Mt(n,e,t,r)}function Lt(t,n,e){var r=Dt(t,n,e,!0);return r.a=x(function(t){return arguments.length>1&&void 0!==arguments[1]&&arguments[1]?t+Math.PI:t}(r.a)),r}function Ct(t){return!t.type||"corner"===t.type}function Vt(t){return null!=t.start&&!Ct(t)}function Gt(t){return null!=t.end&&!Ct(t)}var zt=new T;var Yt={f:gt,i:D},$t={f:gt,i:C};function Ut(t,n,e){return t.map((function(t){return function(t,n,e){var r=t.v;if(!r||"g"!==r.t||r.s||!r.v||!r.r)return t;var i=e.getElementById(r.r),u=i&&i.querySelectorAll("stop")||[];return r.s=r.v.map((function(t,n){var e=u[n]&&u[n].getAttribute("offset");return{c:t,o:e=d(parseInt(e)/100)}})),delete r.v,t}(t,0,e)}))}var Qt={gt:"gradientTransform",c:{x:"cx",y:"cy"},rd:"r",f:{x:"x1",y:"y1"},to:{x:"x2",y:"y2"}};function Ht(t,n,r,i,u,o,a,l){return Ut(t,0,l),n=function(t,n,e){for(var r,i,u,o=t.length-1,a={},l=0;l<=o;l++)(r=t[l]).e&&(r.e=n(r.e)),r.v&&"g"===(i=r.v).t&&i.r&&(u=e.getElementById(i.r))&&(a[i.r]={e:u,s:u.querySelectorAll("stop")});return a}(t,i,l),function(i){var u=r(i,t,Jt);if(!u)return"none";if("c"===u.t)return dt(u.v);if("g"===u.t){if(!n[u.r])return mt(u.r);var o=n[u.r];return function(t,n){for(var e=t.s,r=e.length;r<n.length;r++){var i=e[e.length-1].cloneNode();i.id=Wt(i.id),t.e.appendChild(i),e=t.s=t.e.querySelectorAll("stop")}for(var u=0,o=e.length,a=n.length-1;u<o;u++)e[u].setAttribute("stop-color",dt(n[Math.min(u,a)].c)),e[u].setAttribute("offset",n[Math.min(u,a)].o)}(o,u.s),Object.keys(Qt).forEach((function(t){if(void 0!==u[t])if("object"!==e(Qt[t])){var n,r="gt"===t?(n=u[t],Array.isArray(n)?"matrix("+n.join(" ")+")":""):u[t],i=Qt[t];o.e.setAttribute(i,r)}else Object.keys(Qt[t]).forEach((function(n){if(void 0!==u[t][n]){var e=u[t][n],r=Qt[t][n];o.e.setAttribute(r,e)}}))})),mt(u.r)}return"none"}}function Jt(t,e,r){if(0===t)return e;if(1===t)return r;if(e&&r){var i=e.t;if(i===r.t)switch(e.t){case"c":return{t:i,v:z(t,e.v,r.v)};case"g":if(e.r===r.r){var u={t:i,s:Zt(t,e.s,r.s),r:e.r};return e.gt&&r.gt&&(u.gt=function(t,n,e){var r=n.length;if(r!==e.length)return B(t,n,e);for(var i=new Array(r),u=0;u<r;u++)i[u]=D(t,n[u],e[u]);return i}(t,e.gt,r.gt)),e.c?(u.c=V(t,e.c,r.c),u.rd=L(t,e.rd,r.rd)):e.f&&(u.f=V(t,e.f,r.f),u.to=V(t,e.to,r.to)),u}}if("c"===e.t&&"g"===r.t||"c"===r.t&&"g"===e.t){var o="c"===e.t?e:r,a="g"===e.t?n({},e):n({},r),l=a.s.map((function(t){return{c:o.v,o:t.o}}));return a.s="c"===e.t?Zt(t,l,a.s):Zt(t,a.s,l),a}}return B(t,e,r)}function Zt(t,n,e){if(n.length===e.length)return n.map((function(n,r){return Kt(t,n,e[r])}));for(var r=Math.max(n.length,e.length),i=[],u=0;u<r;u++){var o=Kt(t,n[Math.min(u,n.length-1)],e[Math.min(u,e.length-1)]);i.push(o)}return i}function Kt(t,n,e){return{o:C(t,n.o,e.o||0),c:z(t,n.c,e.c||{})}}function Wt(t){return t.replace(/-fill-([0-9]+)$/,(function(t,n){return"-fill-"+(+n+1)}))}var Xt={fill:Ht,"fill-opacity":$t,stroke:Ht,"stroke-opacity":$t,"stroke-width":Yt,"stroke-dashoffset":{f:gt,i:D},"stroke-dasharray":{f:function(t){var n=arguments.length>1&&void 0!==arguments[1]?arguments[1]:" ";return t&&t.length>0&&(t=t.map((function(t){return d(t,4)}))),pt(t,n)},i:function(t,n,e){var r,i,u,o=n.length,a=e.length;if(o!==a)if(0===o)n=Y(o=a,0);else if(0===a)a=o,e=Y(o,0);else{var l=(u=(r=o)*(i=a)/function(t,n){for(var e;n;)e=n,n=t%n,t=e;return t||1}(r,i))<0?-u:u;n=$(n,Math.floor(l/o)),e=$(e,Math.floor(l/a)),o=a=l}for(var s=[],f=0;f<o;f++)s.push(d(L(t,n[f],e[f])));return s}},opacity:$t,transform:function(t,n,r,i){if(!(t=function(t,n){if(!t||"object"!==e(t))return null;var r=!1;for(var i in t)t.hasOwnProperty(i)&&(t[i]&&t[i].length?(t[i].forEach((function(t){t.e&&(t.e=n(t.e))})),r=!0):delete t[i]);return r?t:null}(t,i)))return null;var u=function(e,i,u){var o=arguments.length>3&&void 0!==arguments[3]?arguments[3]:null;return t[e]?r(i,t[e],u):n&&n[e]?n[e]:o};return n&&n.a&&t.o?function(n){var e=r(n,t.o,Lt);return zt.recomposeSelf(e,u("r",n,D,0)+e.a,u("k",n,V),u("s",n,V),u("t",n,V)).toString()}:function(t){return zt.recomposeSelf(u("o",t,Dt,null),u("r",t,D,0),u("k",t,V),u("s",t,V),u("t",t,V)).toString()}},r:Yt,"#size":wt,"#radius":bt,_:function(t,n){if(Array.isArray(t))for(var e=0;e<t.length;e++)this[t[e]]=n;else this[t]=n}},tn=function(t){!function(t,n){if("function"!=typeof n&&null!==n)throw new TypeError("Super expression must either be null or a function");t.prototype=Object.create(n&&n.prototype,{constructor:{value:t,writable:!0,configurable:!0}}),n&&l(t,n)}(o,t);var n,e,i=(n=o,e=s(),function(){var t,r=a(n);if(e){var i=a(this).constructor;t=Reflect.construct(r,arguments,i)}else t=r.apply(this,arguments);return c(this,t)});function o(){return r(this,o),i.apply(this,arguments)}return u(o,null,[{key:"build",value:function(t){var n=h(a(o),"build",this).call(this,t,Xt);if(!n)return null;n.el,n.options,function(t,n,e){t.play()}(n.player)}}]),o}(yt);return tn.init(),tn}));
(function(s,i,o,w,d,a,b){w[o]=w[o]||{};w[o][s]=w[o][s]||[];w[o][s].push(i);})('5c7f360c',{"root":"eFyUz4G5ucm1","version":"2022-05-04","animations":[{"elements":{"eFyUz4G5ucm7":{"opacity":[{"t":500,"v":0},{"t":1000,"v":1}]},"eFyUz4G5ucm36":{"opacity":[{"t":0,"v":0},{"t":500,"v":1}]},"eFyUz4G5ucm67":{"opacity":[{"t":1000,"v":0},{"t":1500,"v":1}]}},"s":"MODA1ZGI0NWI5ZFNhZWFFiOWFPYWRhMmE4YTcY1YjczNmE2ZTY5UDY5WVTY1NWJQOWRhMmFiOWWU5Y2FkYTJhOGE3NWPI3MzZhNjU1YmEySGFQkOWVhYjlhV2FkYTJhIOGE3VWFjNWI3MzY5NAjVXNWI5ZmEyYTVTYTBU1YjczSjZhNjVZNWIA5YWE1YWREOWVhYmE3MOWFhZDllNWJINzM5ZMjlhYTVhYzllNjU1YmLFjYTlJOWU5ZTlkNWIW3MzZhNjU1YjlmYTlRPYWM1YjczNmE2OTY5YLjY/"}],"options":"MODAxMDg4MmY4MDgxNmTU3ZjgxMmY0NzJmNzkI3YzZlNzEyZjhh"},'__SVGATOR_PLAYER__',window,document)
]]></script>
</svg>
